<svg width="209" height="169" viewBox="0 0 209 169" fill="none" xmlns="http://www.w3.org/2000/svg">
<path d="M10.675 162.75H10.8C11.2 162.75 11.4 162.567 11.4 162.2C11.4 162.067 11.375 161.925 11.325 161.775L9.075 155.7H4.7L2.525 161.675C2.475 161.808 2.45 161.933 2.45 162.05C2.45 162.267 2.50833 162.442 2.625 162.575C2.74167 162.692 2.86667 162.75 3 162.75H3.125V163H0.35V162.75H0.475C0.691667 162.75 0.9 162.625 1.1 162.375C1.31667 162.108 1.49167 161.8 1.625 161.45L7.35 146.2L12.95 161.3C13.0667 161.633 13.225 161.958 13.425 162.275C13.6417 162.592 13.9167 162.75 14.25 162.75H14.375V163H10.675V162.75ZM4.95 154.85H8.8L6.875 149.625L4.95 154.85ZM31.7461 162.125V165.25H31.4961C31.4794 165.033 31.4211 164.792 31.3211 164.525C31.2211 164.258 31.0794 164.008 30.8961 163.775C30.7294 163.558 30.5294 163.375 30.2961 163.225C30.0628 163.075 29.8044 163 29.5211 163H17.9961C17.7128 163 17.4544 163.075 17.2211 163.225C16.9878 163.392 16.7794 163.583 16.5961 163.8C16.4294 164.033 16.2878 164.283 16.1711 164.55C16.0711 164.817 16.0128 165.05 15.9961 165.25H15.7461V162.125H16.8461C17.3794 162.125 17.7544 161.817 17.9711 161.2L23.7211 146.125L29.5211 161.125C29.6378 161.375 29.7961 161.608 29.9961 161.825C30.1961 162.025 30.4294 162.125 30.6961 162.125H31.7461ZM18.5211 162.125H28.1461L23.3211 149.7L18.5211 162.125ZM34.2783 162.75H34.4033C34.52 162.75 34.6283 162.7 34.7283 162.6C34.8283 162.5 34.9117 162.383 34.9783 162.25C35.0617 162.117 35.12 161.975 35.1533 161.825C35.1867 161.658 35.2033 161.508 35.2033 161.375V148.075C35.2033 147.958 35.1867 147.825 35.1533 147.675C35.12 147.525 35.0617 147.383 34.9783 147.25C34.9117 147.1 34.82 146.983 34.7033 146.9C34.6033 146.8 34.4867 146.75 34.3533 146.75H34.2283V146.5H38.3283C39.8783 146.5 41.0867 146.842 41.9533 147.525C42.8367 148.208 43.2783 149.117 43.2783 150.25C43.2783 150.733 43.195 151.167 43.0283 151.55C42.8617 151.933 42.645 152.275 42.3783 152.575C42.1283 152.875 41.8533 153.133 41.5533 153.35C41.2533 153.55 40.97 153.717 40.7033 153.85C41.4033 153.983 41.9867 154.208 42.4533 154.525C42.92 154.842 43.295 155.208 43.5783 155.625C43.8783 156.025 44.0867 156.458 44.2033 156.925C44.32 157.392 44.3783 157.85 44.3783 158.3C44.3783 159.167 44.22 159.9 43.9033 160.5C43.5867 161.083 43.1617 161.567 42.6283 161.95C42.1117 162.317 41.5117 162.583 40.8283 162.75C40.1617 162.917 39.47 163 38.7533 163H34.2783V162.75ZM42.6783 158.45C42.545 157.167 42.1117 156.175 41.3783 155.475C40.645 154.775 39.6117 154.425 38.2783 154.425H36.8783V162.175H38.3283C39.6783 162.175 40.7367 161.875 41.5033 161.275C42.2867 160.658 42.6783 159.808 42.6783 158.725V158.45ZM41.6533 150.475C41.6033 149.508 41.2617 148.742 40.6283 148.175C40.0117 147.608 39.1783 147.325 38.1283 147.325H36.8783V153.625H38.1783C38.8783 153.625 39.445 153.533 39.8783 153.35C40.3283 153.167 40.6867 152.933 40.9533 152.65C41.22 152.35 41.4033 152.025 41.5033 151.675C41.6033 151.325 41.6533 150.983 41.6533 150.65V150.475ZM55.4348 146.25C56.7348 146.25 57.9014 146.483 58.9348 146.95C59.9681 147.4 60.8431 148.017 61.5598 148.8C62.2931 149.567 62.8514 150.467 63.2348 151.5C63.6348 152.517 63.8348 153.583 63.8348 154.7C63.8348 155.95 63.6014 157.1 63.1348 158.15C62.6848 159.2 62.0598 160.1 61.2598 160.85C60.4598 161.6 59.5264 162.192 58.4598 162.625C57.4098 163.042 56.2848 163.25 55.0848 163.25C53.8014 163.25 52.6431 163.017 51.6098 162.55C50.5931 162.083 49.7264 161.467 49.0098 160.7C48.3098 159.933 47.7681 159.05 47.3848 158.05C47.0014 157.05 46.8098 156.008 46.8098 154.925C46.8098 153.858 47.0014 152.808 47.3848 151.775C47.7681 150.725 48.3264 149.792 49.0598 148.975C49.8098 148.158 50.7181 147.5 51.7848 147C52.8514 146.5 54.0681 146.25 55.4348 146.25ZM55.4098 162.375C56.5264 162.325 57.5014 162.075 58.3348 161.625C59.1848 161.158 59.8931 160.575 60.4598 159.875C61.0264 159.158 61.4431 158.375 61.7098 157.525C61.9931 156.675 62.1348 155.833 62.1348 155C62.1348 154.083 61.9681 153.158 61.6348 152.225C61.3014 151.292 60.8264 150.45 60.2098 149.7C59.5931 148.933 58.8514 148.317 57.9848 147.85C57.1348 147.367 56.1764 147.125 55.1098 147.125C54.0764 147.125 53.1514 147.358 52.3348 147.825C51.5181 148.275 50.8181 148.858 50.2348 149.575C49.6681 150.292 49.2348 151.092 48.9348 151.975C48.6348 152.858 48.4848 153.725 48.4848 154.575C48.4848 155.492 48.6598 156.417 49.0098 157.35C49.3598 158.267 49.8431 159.1 50.4598 159.85C51.0764 160.6 51.8014 161.208 52.6348 161.675C53.4848 162.142 54.4098 162.375 55.4098 162.375ZM66.5283 162.75H66.6533C66.7867 162.75 66.9033 162.7 67.0033 162.6C67.1033 162.5 67.1867 162.383 67.2533 162.25C67.3367 162.117 67.395 161.975 67.4283 161.825C67.4617 161.658 67.4783 161.508 67.4783 161.375V148.05C67.4783 147.933 67.4617 147.8 67.4283 147.65C67.395 147.5 67.3367 147.358 67.2533 147.225C67.1867 147.092 67.1033 146.983 67.0033 146.9C66.9033 146.8 66.795 146.75 66.6783 146.75H66.5533V146.5H70.1033V146.75H69.9783C69.845 146.75 69.7283 146.8 69.6283 146.9C69.5283 146.983 69.4367 147.092 69.3533 147.225C69.2867 147.358 69.2283 147.5 69.1783 147.65C69.145 147.8 69.1283 147.933 69.1283 148.05V153.225L74.9283 147.45C75.0617 147.317 75.1283 147.158 75.1283 146.975C75.1283 146.825 75.0617 146.75 74.9283 146.75V146.5H77.6283V146.75C77.295 146.767 76.995 146.867 76.7283 147.05C76.4783 147.233 76.2033 147.475 75.9033 147.775L69.9783 153.7C71.0617 153.733 71.9367 153.967 72.6033 154.4C73.27 154.833 73.795 155.433 74.1783 156.2L76.1533 160.2C76.27 160.45 76.42 160.725 76.6033 161.025C76.8033 161.308 77.02 161.583 77.2533 161.85C77.5033 162.1 77.7783 162.317 78.0783 162.5C78.3783 162.667 78.695 162.75 79.0283 162.75V163H77.7783C77.295 163 76.8783 162.933 76.5283 162.8C76.1783 162.65 75.87 162.458 75.6033 162.225C75.3533 161.975 75.1283 161.7 74.9283 161.4C74.745 161.1 74.5783 160.8 74.4283 160.5L72.4033 156.475C72.0867 155.858 71.645 155.392 71.0783 155.075C70.5283 154.742 69.8783 154.558 69.1283 154.525V161.375C69.1283 161.508 69.145 161.65 69.1783 161.8C69.2117 161.95 69.2617 162.1 69.3283 162.25C69.395 162.383 69.4783 162.5 69.5783 162.6C69.6783 162.683 69.7867 162.733 69.9033 162.75H70.0783V163H66.5283V162.75ZM90.5676 162.75H90.6926C91.0926 162.75 91.2926 162.567 91.2926 162.2C91.2926 162.067 91.2676 161.925 91.2176 161.775L88.9676 155.7H84.5926L82.4176 161.675C82.3676 161.808 82.3426 161.933 82.3426 162.05C82.3426 162.267 82.4009 162.442 82.5176 162.575C82.6342 162.692 82.7592 162.75 82.8926 162.75H83.0176V163H80.2426V162.75H80.3676C80.5842 162.75 80.7926 162.625 80.9926 162.375C81.2092 162.108 81.3842 161.8 81.5176 161.45L87.2426 146.2L92.8426 161.3C92.9592 161.633 93.1176 161.958 93.3176 162.275C93.5342 162.592 93.8092 162.75 94.1426 162.75H94.2676V163H90.5676V162.75ZM84.8426 154.85H88.6926L86.7676 149.625L84.8426 154.85ZM100.269 162.75H100.394V163H96.8443V162.75H96.9693C97.1027 162.75 97.2193 162.7 97.3193 162.6C97.4193 162.5 97.5027 162.383 97.5693 162.25C97.6527 162.117 97.711 161.975 97.7443 161.825C97.7777 161.658 97.7943 161.508 97.7943 161.375V147.425H94.8943C94.6277 147.425 94.3943 147.483 94.1943 147.6C93.9943 147.717 93.8277 147.867 93.6943 148.05C93.561 148.217 93.461 148.408 93.3943 148.625C93.3277 148.825 93.2943 149.025 93.2943 149.225H93.0443V146.5H104.269V149.225H104.019C104.019 149.025 103.986 148.825 103.919 148.625C103.853 148.408 103.753 148.217 103.619 148.05C103.486 147.867 103.319 147.717 103.119 147.6C102.919 147.483 102.686 147.425 102.419 147.425H99.4693V161.375C99.4693 161.508 99.486 161.658 99.5193 161.825C99.5527 161.975 99.6027 162.117 99.6693 162.25C99.7527 162.383 99.836 162.5 99.9193 162.6C100.019 162.7 100.136 162.75 100.269 162.75ZM113.133 162.75H113.258C113.391 162.75 113.508 162.7 113.608 162.6C113.708 162.5 113.791 162.383 113.858 162.25C113.941 162.117 113.999 161.975 114.033 161.825C114.066 161.658 114.083 161.508 114.083 161.375V148.05C114.083 147.933 114.066 147.8 114.033 147.65C113.999 147.5 113.941 147.358 113.858 147.225C113.791 147.092 113.708 146.983 113.608 146.9C113.508 146.8 113.399 146.75 113.283 146.75H113.158V146.5H116.708V146.75H116.583C116.449 146.75 116.333 146.8 116.233 146.9C116.133 146.983 116.041 147.092 115.958 147.225C115.891 147.358 115.833 147.5 115.783 147.65C115.749 147.8 115.733 147.933 115.733 148.05V153.225L121.533 147.45C121.666 147.317 121.733 147.158 121.733 146.975C121.733 146.825 121.666 146.75 121.533 146.75V146.5H124.233V146.75C123.899 146.767 123.599 146.867 123.333 147.05C123.083 147.233 122.808 147.475 122.508 147.775L116.583 153.7C117.666 153.733 118.541 153.967 119.208 154.4C119.874 154.833 120.399 155.433 120.783 156.2L122.758 160.2C122.874 160.45 123.024 160.725 123.208 161.025C123.408 161.308 123.624 161.583 123.858 161.85C124.108 162.1 124.383 162.317 124.683 162.5C124.983 162.667 125.299 162.75 125.633 162.75V163H124.383C123.899 163 123.483 162.933 123.133 162.8C122.783 162.65 122.474 162.458 122.208 162.225C121.958 161.975 121.733 161.7 121.533 161.4C121.349 161.1 121.183 160.8 121.033 160.5L119.008 156.475C118.691 155.858 118.249 155.392 117.683 155.075C117.133 154.742 116.483 154.558 115.733 154.525V161.375C115.733 161.508 115.749 161.65 115.783 161.8C115.816 161.95 115.866 162.1 115.933 162.25C115.999 162.383 116.083 162.5 116.183 162.6C116.283 162.683 116.391 162.733 116.508 162.75H116.683V163H113.133V162.75ZM127.597 146.5H131.147C132.997 146.5 134.397 146.858 135.347 147.575C136.314 148.275 136.797 149.275 136.797 150.575C136.797 151.275 136.63 151.9 136.297 152.45C135.964 153 135.522 153.467 134.972 153.85C134.439 154.217 133.83 154.5 133.147 154.7C132.48 154.9 131.814 155 131.147 155H130.197V161.375C130.197 161.508 130.214 161.658 130.247 161.825C130.28 161.975 130.33 162.117 130.397 162.25C130.48 162.383 130.564 162.5 130.647 162.6C130.747 162.7 130.864 162.75 130.997 162.75H131.122V163H127.597V162.75H127.722C127.839 162.75 127.947 162.7 128.047 162.6C128.147 162.5 128.23 162.383 128.297 162.25C128.364 162.117 128.414 161.975 128.447 161.825C128.48 161.658 128.497 161.508 128.497 161.375V148.05C128.497 147.817 128.43 147.55 128.297 147.25C128.164 146.95 127.972 146.783 127.722 146.75H127.597V146.5ZM130.197 147.375V154.125H130.947C131.614 154.125 132.205 154.033 132.722 153.85C133.255 153.667 133.697 153.425 134.047 153.125C134.397 152.825 134.664 152.483 134.847 152.1C135.03 151.717 135.122 151.325 135.122 150.925C135.122 150.442 135.039 149.992 134.872 149.575C134.722 149.142 134.464 148.767 134.097 148.45C133.747 148.117 133.28 147.858 132.697 147.675C132.114 147.475 131.397 147.375 130.547 147.375H130.197ZM139.426 162.75H139.551C139.684 162.75 139.801 162.708 139.901 162.625C140.001 162.525 140.084 162.408 140.151 162.275C140.234 162.142 140.292 162 140.326 161.85C140.376 161.7 140.401 161.558 140.401 161.425V148.05C140.401 147.933 140.376 147.8 140.326 147.65C140.292 147.5 140.234 147.358 140.151 147.225C140.084 147.092 140.001 146.983 139.901 146.9C139.801 146.8 139.684 146.75 139.551 146.75H139.426V146.5H149.051V148.825H148.801C148.767 148.442 148.617 148.108 148.351 147.825C148.084 147.525 147.667 147.375 147.101 147.375H142.076V153.7H146.226C146.609 153.7 146.926 153.583 147.176 153.35C147.442 153.117 147.576 152.842 147.576 152.525H147.826V155.65H147.576C147.576 155.35 147.451 155.092 147.201 154.875C146.951 154.658 146.626 154.55 146.226 154.55H142.076V162.125H147.551C147.867 162.125 148.142 162.05 148.376 161.9C148.609 161.75 148.801 161.575 148.951 161.375C149.117 161.158 149.234 160.933 149.301 160.7C149.384 160.45 149.426 160.242 149.426 160.075H149.676V163H139.426V162.75ZM158.385 162.75H158.51V163H154.96V162.75H155.085C155.218 162.75 155.335 162.7 155.435 162.6C155.535 162.5 155.618 162.383 155.685 162.25C155.768 162.117 155.826 161.975 155.86 161.825C155.893 161.658 155.91 161.508 155.91 161.375V147.425H153.01C152.743 147.425 152.51 147.483 152.31 147.6C152.11 147.717 151.943 147.867 151.81 148.05C151.676 148.217 151.576 148.408 151.51 148.625C151.443 148.825 151.41 149.025 151.41 149.225H151.16V146.5H162.385V149.225H162.135C162.135 149.025 162.101 148.825 162.035 148.625C161.968 148.408 161.868 148.217 161.735 148.05C161.601 147.867 161.435 147.717 161.235 147.6C161.035 147.483 160.801 147.425 160.535 147.425H157.585V161.375C157.585 161.508 157.601 161.658 157.635 161.825C157.668 161.975 157.718 162.117 157.785 162.25C157.868 162.383 157.951 162.5 158.035 162.6C158.135 162.7 158.251 162.75 158.385 162.75ZM171.361 146.25C172.661 146.25 173.827 146.483 174.861 146.95C175.894 147.4 176.769 148.017 177.486 148.8C178.219 149.567 178.777 150.467 179.161 151.5C179.561 152.517 179.761 153.583 179.761 154.7C179.761 155.95 179.527 157.1 179.061 158.15C178.611 159.2 177.986 160.1 177.186 160.85C176.386 161.6 175.452 162.192 174.386 162.625C173.336 163.042 172.211 163.25 171.011 163.25C169.727 163.25 168.569 163.017 167.536 162.55C166.519 162.083 165.652 161.467 164.936 160.7C164.236 159.933 163.694 159.05 163.311 158.05C162.927 157.05 162.736 156.008 162.736 154.925C162.736 153.858 162.927 152.808 163.311 151.775C163.694 150.725 164.252 149.792 164.986 148.975C165.736 148.158 166.644 147.5 167.711 147C168.777 146.5 169.994 146.25 171.361 146.25ZM171.336 162.375C172.452 162.325 173.427 162.075 174.261 161.625C175.111 161.158 175.819 160.575 176.386 159.875C176.952 159.158 177.369 158.375 177.636 157.525C177.919 156.675 178.061 155.833 178.061 155C178.061 154.083 177.894 153.158 177.561 152.225C177.227 151.292 176.752 150.45 176.136 149.7C175.519 148.933 174.777 148.317 173.911 147.85C173.061 147.367 172.102 147.125 171.036 147.125C170.002 147.125 169.077 147.358 168.261 147.825C167.444 148.275 166.744 148.858 166.161 149.575C165.594 150.292 165.161 151.092 164.861 151.975C164.561 152.858 164.411 153.725 164.411 154.575C164.411 155.492 164.586 156.417 164.936 157.35C165.286 158.267 165.769 159.1 166.386 159.85C167.002 160.6 167.727 161.208 168.561 161.675C169.411 162.142 170.336 162.375 171.336 162.375ZM182.454 162.75H182.579C182.696 162.75 182.804 162.7 182.904 162.6C183.004 162.5 183.087 162.383 183.154 162.25C183.237 162.117 183.296 161.975 183.329 161.825C183.362 161.658 183.379 161.508 183.379 161.375V148.075C183.379 147.958 183.362 147.825 183.329 147.675C183.296 147.525 183.237 147.383 183.154 147.25C183.087 147.1 182.996 146.983 182.879 146.9C182.779 146.8 182.662 146.75 182.529 146.75H182.404V146.5H186.504C188.054 146.5 189.262 146.842 190.129 147.525C191.012 148.208 191.454 149.117 191.454 150.25C191.454 150.733 191.371 151.167 191.204 151.55C191.037 151.933 190.821 152.275 190.554 152.575C190.304 152.875 190.029 153.133 189.729 153.35C189.429 153.55 189.146 153.717 188.879 153.85C189.579 153.983 190.162 154.208 190.629 154.525C191.096 154.842 191.471 155.208 191.754 155.625C192.054 156.025 192.262 156.458 192.379 156.925C192.496 157.392 192.554 157.85 192.554 158.3C192.554 159.167 192.396 159.9 192.079 160.5C191.762 161.083 191.337 161.567 190.804 161.95C190.287 162.317 189.687 162.583 189.004 162.75C188.337 162.917 187.646 163 186.929 163H182.454V162.75ZM190.854 158.45C190.721 157.167 190.287 156.175 189.554 155.475C188.821 154.775 187.787 154.425 186.454 154.425H185.054V162.175H186.504C187.854 162.175 188.912 161.875 189.679 161.275C190.462 160.658 190.854 159.808 190.854 158.725V158.45ZM189.829 150.475C189.779 149.508 189.437 148.742 188.804 148.175C188.187 147.608 187.354 147.325 186.304 147.325H185.054V153.625H186.354C187.054 153.625 187.621 153.533 188.054 153.35C188.504 153.167 188.862 152.933 189.129 152.65C189.396 152.35 189.579 152.025 189.679 151.675C189.779 151.325 189.829 150.983 189.829 150.65V150.475ZM204.736 162.75H204.861C205.261 162.75 205.461 162.567 205.461 162.2C205.461 162.067 205.436 161.925 205.386 161.775L203.136 155.7H198.761L196.586 161.675C196.536 161.808 196.511 161.933 196.511 162.05C196.511 162.267 196.569 162.442 196.686 162.575C196.802 162.692 196.927 162.75 197.061 162.75H197.186V163H194.411V162.75H194.536C194.752 162.75 194.961 162.625 195.161 162.375C195.377 162.108 195.552 161.8 195.686 161.45L201.411 146.2L207.011 161.3C207.127 161.633 207.286 161.958 207.486 162.275C207.702 162.592 207.977 162.75 208.311 162.75H208.436V163H204.736V162.75ZM199.011 154.85H202.861L200.936 149.625L199.011 154.85Z" fill="#993C18"/>
<g clip-path="url(#clip0_1_315)">
<path d="M69.7907 1.2993C63.4323 4.70475 60.376 8.00929 59.2005 12.7517C59.0189 13.5085 58.9654 14.1265 58.9227 16.0436C58.8693 18.2761 58.88 18.4274 59.0937 18.8311C59.2112 19.0581 59.4356 19.323 59.5852 19.3986C60.5898 19.941 63.1652 19.0707 64.9284 17.595C65.7406 16.9139 67.0443 15.3121 67.632 14.2526C68.1877 13.2562 69.0213 11.2508 69.4166 9.96427C69.9403 8.2111 70.4532 5.67593 70.4853 4.61646C70.5066 4.04888 70.6242 3.00202 70.7417 2.27048C70.9982 0.769564 70.9982 0.75695 70.8914 0.75695C70.8379 0.75695 70.3464 1.0092 69.7907 1.2993Z" fill="#993C18"/>
<path d="M138.782 0.97113C138.985 1.90448 139.305 4.51532 139.22 4.45226C138.953 4.26307 139.498 7.17662 140.171 9.57304C140.94 12.2722 141.966 14.4037 143.313 16.0686C144.948 18.0993 146.978 19.3479 148.891 19.5119C150.43 19.6506 150.75 19.2344 150.857 17.0146C151.188 10.2541 147.844 5.43605 139.989 1.32429C139.391 1.00897 138.867 0.756714 138.824 0.756714C138.771 0.756714 138.76 0.857616 138.782 0.97113Z" fill="#993C18"/>
<path d="M53.2483 5.70101C51.5385 9.47223 50.566 12.5371 50.1706 15.3876C49.9355 17.0525 50.0317 20.9372 50.3416 22.4129C50.737 24.3805 51.624 26.3607 52.5323 27.3571C52.9277 27.786 53.0773 27.8743 53.4513 27.8743C54.349 27.8743 55.3962 26.6634 56.2298 24.658C56.8068 23.2706 57.3304 21.1012 57.245 20.4958C57.1915 20.2057 57.2022 20.1553 57.2984 20.3066C57.3839 20.458 57.4053 20.4327 57.3518 20.1805C57.3304 20.0039 57.3411 19.3228 57.3839 18.6669C57.5442 16.4975 57.2663 14.1768 56.529 11.6038C56.0908 10.0398 55.1291 7.4668 54.381 5.82714L53.7933 4.51541L53.2483 5.70101Z" fill="#993C18"/>
<path d="M155.356 5.81453C153.924 8.98033 152.887 12.2597 152.492 14.8327C152.171 16.9516 152.246 20.2688 152.652 22.1355C153.154 24.4436 154.372 26.84 155.43 27.6094C155.644 27.7608 155.965 27.8743 156.232 27.8743C156.969 27.8743 157.707 26.9283 158.594 24.8598C159.085 23.7121 159.598 21.5679 159.513 21.0255C159.47 20.7859 159.491 20.6976 159.577 20.7607C159.652 20.8237 159.662 20.7985 159.619 20.6976C159.566 20.6093 159.598 19.9787 159.662 19.2976C160.036 15.8291 158.989 11.2128 156.627 6.00372L155.954 4.51541L155.356 5.81453Z" fill="#993C18"/>
<path d="M66.8521 17.5821C64.5652 18.4902 63.6462 18.9317 62.3318 19.7389C58.6557 22.0344 56.4116 24.948 55.5781 28.5048C55.3216 29.6399 55.0758 32.2634 55.204 32.6165C55.3109 32.9192 55.3323 32.9949 55.3536 33.2346C55.375 33.6382 55.9414 34.1805 56.433 34.2814C56.978 34.3949 58.7198 34.2436 59.0832 34.0544C59.2114 33.9913 59.3183 33.9535 59.3183 33.9787C59.3183 34.0039 58.7733 34.5084 58.1214 35.1012C54.3812 38.4436 52.3722 41.5085 51.56 45.0906C51.4104 45.7716 51.357 46.4275 51.357 47.9284C51.357 49.0005 51.3997 50.0474 51.4425 50.2618C51.4959 50.5393 51.4959 50.5897 51.4104 50.451C51.3356 50.3122 51.3249 50.4762 51.3677 51.0186C51.6028 53.6042 52.7676 53.8817 55.5781 52.0024C56.6253 51.3087 57.5336 50.4384 58.1748 49.505C58.7519 48.66 59.6923 46.5663 60.0984 45.2167C60.4724 43.9806 60.9533 41.395 60.8678 41.0166C60.825 40.8022 60.8464 40.7392 60.9319 40.8148C61.0281 40.8779 61.0388 40.8148 60.996 40.5878C60.9533 40.4238 60.996 39.6545 61.0815 38.8977C61.167 38.1409 61.2632 36.6148 61.2952 35.5048C61.37 33.2598 61.4235 32.6544 61.5517 32.7048C61.7334 32.7553 63.0585 31.494 63.8386 30.5228C65.1423 28.8958 66.1147 26.9912 67.1193 24.0903C67.878 21.8957 68.3054 20.0037 67.9848 20.2434C67.878 20.3065 68.2627 18.5281 68.5619 17.5316C68.7436 16.9136 68.7436 16.901 68.6474 16.901C68.594 16.901 67.7925 17.2037 66.8521 17.5821Z" fill="#993C18"/>
<path d="M141.068 16.9642C141.068 17.0399 141.432 18.5535 141.784 19.9787C141.827 20.1427 141.806 20.1805 141.71 20.1174C141.603 20.0418 141.581 20.1679 141.624 20.6976C141.752 22.1481 143.345 26.4995 144.477 28.5175C144.777 29.0473 145.364 29.9176 145.792 30.4599C146.604 31.4942 148.228 33.0329 148.228 32.7807C148.228 32.6924 148.25 32.6545 148.282 32.6924C148.346 32.7554 148.592 38.2294 148.581 39.2258C148.57 39.7051 148.602 39.8438 148.656 39.6672C148.72 39.5033 148.73 39.6294 148.688 39.9826C148.624 40.6763 149.072 43.3628 149.521 44.952C149.938 46.4277 150.878 48.5719 151.509 49.5052C152.15 50.4385 153.058 51.3088 154.106 52.0025C155.815 53.1377 156.841 53.453 157.515 53.0368C157.974 52.7593 158.316 51.8764 158.241 51.1701C158.209 50.88 158.22 50.7286 158.263 50.8169C158.316 50.9052 158.348 50.716 158.359 50.3629C158.359 50.0349 158.369 48.9881 158.38 48.0547C158.412 45.8601 158.092 44.1952 157.29 42.3411C156.371 40.197 154.18 37.3843 151.733 35.2023C150.387 34.0041 149.885 33.5122 150.504 33.9789C150.793 34.2059 152.61 34.4077 153.251 34.2816C153.742 34.1807 154.309 33.6383 154.33 33.2347C154.362 32.8816 154.373 32.8185 154.458 32.7176C154.587 32.5662 154.544 30.8761 154.373 29.7536C153.967 26.9662 153.016 24.9229 151.156 22.8292C149.222 20.6472 145.867 18.5787 142.148 17.2796C141.72 17.1282 141.293 16.9769 141.218 16.939C141.132 16.9012 141.068 16.9138 141.068 16.9642Z" fill="#993C18"/>
<path d="M46.0347 21.8833C45.3828 24.4563 45.1904 25.2761 44.9553 26.55C44.4745 29.1987 44.3249 30.9897 44.4103 33.1086C44.4531 34.1429 44.4851 35.1393 44.4851 35.3159C44.4958 36.6907 44.9767 38.9231 45.5538 40.2979C46.1736 41.7484 47.2956 43.388 48.1933 44.1574C48.8452 44.7124 49.3581 44.8007 49.9245 44.4601C50.3092 44.2205 50.8435 43.2493 51.2282 42.1142C51.8587 40.2475 51.9976 39.0745 51.9869 35.8204C51.9869 34.2312 51.9442 33.6762 51.7518 32.8312C51.1107 30.0185 49.8069 27.2059 47.5307 23.7752C46.0133 21.4923 46.1095 21.6058 46.0347 21.8833Z" fill="#993C18"/>
<path d="M162.975 22.6023C161.436 24.9483 161.084 25.5032 160.432 26.6762C158.433 30.2835 157.568 33.3988 157.653 36.779C157.664 37.6241 157.728 38.2926 157.771 38.2547C157.814 38.2169 157.824 38.343 157.782 38.5196C157.621 39.289 158.316 42.1016 158.989 43.426C159.438 44.2963 159.865 44.6494 160.485 44.6494C161.084 44.6494 161.992 43.8296 162.922 42.48C163.723 41.2818 164.236 40.1845 164.631 38.8097C165.166 36.9304 165.273 35.6565 165.262 31.9105C165.251 29.6907 165.209 29.0853 164.973 27.6348C164.696 25.9447 163.723 21.6942 163.616 21.7068C163.584 21.7068 163.296 22.1104 162.975 22.6023Z" fill="#993C18"/>
<path d="M40.4673 42.0889C40.5207 43.0475 40.5635 44.2078 40.5635 44.6745C40.5635 45.1286 40.5848 45.4691 40.6169 45.406C40.6489 45.3556 40.681 45.6835 40.6917 46.1376C40.7131 47.2727 41.1833 50.0602 41.6428 51.6998C42.7755 55.8116 44.7418 58.6368 47.5844 60.226C49.5613 61.336 50.4803 60.7432 50.6406 58.2332C50.6834 57.6657 50.7154 56.2278 50.7048 55.0548C50.7048 52.9737 50.6941 52.8728 50.3521 51.7124C49.3797 48.3574 47.3493 45.5826 43.8014 42.7826C42.8824 42.051 40.5314 40.3609 40.4459 40.3609C40.4032 40.3609 40.4245 41.1429 40.4673 42.0889Z" fill="#993C18"/>
<path d="M168.062 41.1808C162.441 45.179 159.716 48.8115 159.064 53.226C158.893 54.4242 158.904 57.2495 159.085 57.8297C159.139 57.981 159.128 58.0315 159.053 57.981C158.882 57.8549 159.192 59.5828 159.417 60.0369C159.876 60.9702 160.763 60.9955 162.281 60.1126C164.696 58.6999 166.459 56.3918 167.592 53.1251C168.286 51.1197 169.013 47.5124 168.895 46.68C168.863 46.4277 168.874 46.289 168.928 46.3773C168.981 46.4529 169.013 46.2764 169.013 45.9358C169.024 45.6079 169.077 44.5484 169.152 43.5772C169.227 42.606 169.302 41.4835 169.334 41.0799C169.366 40.6889 169.344 40.361 169.302 40.361C169.259 40.361 168.703 40.7267 168.062 41.1808Z" fill="#993C18"/>
<path d="M59.521 48.6474C55.2678 53.9321 53.3657 58.5358 53.6008 63.0007C53.6328 63.7575 53.6863 64.8422 53.7076 65.3971C53.7824 67.1251 54.3274 68.9918 54.9045 69.4332C55.6419 70.0134 56.4861 69.7107 57.8539 68.399C59.147 67.1377 60.0767 65.7124 60.6751 64.035C61.1133 62.7989 61.4659 61.2223 61.5086 60.2259C61.53 59.8097 61.6048 58.788 61.6689 57.9556C61.7972 56.4294 61.7544 54.2979 61.5514 52.469C61.3911 50.9681 60.782 47.2978 60.6965 47.2978C60.6537 47.2978 60.1301 47.9032 59.521 48.6474Z" fill="#993C18"/>
<path d="M148.891 47.8657C148.207 51.3847 147.993 53.7054 148.036 56.9721C148.057 58.4352 148.089 59.6208 148.121 59.5956C148.153 59.5704 148.185 59.8731 148.185 60.2641C148.207 61.1469 148.634 63.0893 149.072 64.2245C149.884 66.356 151.562 68.5002 153.144 69.4462C154.106 70.0137 154.854 69.711 155.324 68.5759C155.901 67.1759 156.083 65.6119 156.072 62.1181C156.072 60.4659 156.029 60.0749 155.783 59.0028C155.035 55.7865 153.219 52.3811 150.376 48.9126L149.008 47.2477L148.891 47.8657Z" fill="#993C18"/>
<path d="M38.5865 58.2331C38.5865 58.2583 38.7789 58.7376 39.0247 59.2926C39.5269 60.4908 39.6872 60.9575 39.559 60.8692C39.3987 60.7431 39.3666 61.3611 39.4949 61.9665C39.8262 63.4926 42.3268 67.8693 43.8976 69.6351C45.2227 71.136 46.9005 72.4351 47.9905 72.8009C48.3752 72.927 48.5141 73.0027 48.3111 72.9648C48.108 72.927 47.4776 72.8135 46.9219 72.7126C45.6716 72.4982 43.1496 72.2711 41.8245 72.2711H40.8307L41.397 73.3054C42.1665 74.718 42.1665 74.718 42.0275 74.6171C41.8352 74.4784 41.7497 75.1342 41.8886 75.6766C42.1558 76.736 44.6777 80.419 46.2059 82.0082C47.2211 83.055 48.5782 84.1271 49.4545 84.5938C50.5018 85.1362 51.5277 85.5145 52.0406 85.5272L52.5322 85.5398L52.0513 85.6407C51.7841 85.7037 50.7262 85.9055 49.7003 86.0947C48.6744 86.2839 47.8088 86.4605 47.7768 86.4857C47.7554 86.511 47.7768 86.574 47.8302 86.6245C48.1187 86.8641 49.3049 88.4407 49.1446 88.3776C48.9523 88.302 48.8454 88.5038 48.8454 88.9704C48.8454 89.4497 49.4118 90.3326 50.3522 91.329C54.0817 95.2768 57.0952 97.0048 60.3866 97.0426C61.0598 97.0426 61.7865 97.0174 61.9895 96.9543C62.1926 96.9039 61.6155 97.1687 60.7072 97.5345C58.1852 98.5688 57.3944 98.9219 57.3944 99.0102C57.3944 99.048 57.7043 99.3634 58.089 99.6913C58.6768 100.196 59.179 100.751 58.805 100.473C58.6661 100.372 58.4631 100.776 58.4631 101.154C58.4631 102.403 63.6566 105.708 66.9052 106.527C68.241 106.868 70.3997 106.843 71.65 106.477C72.8575 106.124 74.4391 105.241 74.952 104.648C75.3688 104.144 75.5505 103.488 75.3581 103.084C75.2726 102.87 75.3154 102.781 75.668 102.466C75.9031 102.264 76.0955 102.062 76.0955 102.012C76.0955 101.962 75.8176 101.508 75.4757 101.003C73.7445 98.4426 71.5431 96.866 68.9784 96.3489C68.0273 96.1597 65.0458 96.2732 63.9131 96.5381C62.5132 96.866 62.3422 96.866 63.2826 96.5759C63.8276 96.412 64.3726 96.1471 64.5863 95.9453C64.9924 95.5795 65.2382 94.8858 65.1313 94.3939C65.0779 94.1669 65.142 94.066 65.3985 93.902C65.5801 93.8011 65.7298 93.6624 65.7298 93.6119C65.7298 93.5615 65.5588 93.1327 65.3557 92.666C63.6139 88.6677 60.8247 86.347 57.0097 85.7542C55.8022 85.565 55.6526 85.5145 56.0373 85.3758C56.5823 85.1992 56.9349 84.6443 56.9884 83.8875C56.999 83.6352 57.0845 83.4713 57.2021 83.4208C57.4479 83.3325 57.4479 83.3451 57.0738 81.983C55.9197 77.8334 53.8145 75.2477 50.2346 73.6333C49.7965 73.4441 49.6041 73.318 49.8072 73.3684C50.0102 73.4315 50.6834 73.4693 51.3032 73.4693C52.1688 73.4693 52.5108 73.4189 52.8207 73.2423C53.2375 72.9901 53.6008 72.2837 53.5153 71.8927C53.4833 71.7414 53.5367 71.6405 53.6649 71.6026C53.9107 71.527 53.9107 71.3378 53.7077 70.0387C53.0558 66.0026 51.0468 62.8746 47.8943 60.9827C46.2166 59.9863 43.6839 59.1286 40.7772 58.5863C39.8368 58.4223 38.9606 58.2583 38.8323 58.2205C38.6934 58.1953 38.5865 58.1953 38.5865 58.2331Z" fill="#993C18"/>
<path d="M170.562 58.2836C168.083 58.7376 166.993 58.9773 165.807 59.343C160.635 60.8818 157.675 63.7071 156.403 68.3233C156.125 69.3197 155.794 71.3756 155.89 71.5396C155.912 71.6026 156.04 71.6405 156.168 71.6531C156.296 71.6531 156.339 71.6909 156.275 71.7288C156.093 71.8045 156.104 72.2081 156.296 72.6369C156.563 73.2549 157.098 73.4693 158.433 73.4693C159.085 73.4693 159.759 73.4189 159.93 73.3684C160.111 73.3054 159.791 73.482 159.224 73.7594C157.771 74.4531 156.553 75.3486 155.58 76.4207C154.212 77.9343 153.261 79.7379 152.674 81.9577C152.332 83.2316 152.332 83.3451 152.642 83.4965C152.77 83.5596 152.823 83.61 152.759 83.61C152.674 83.6226 152.663 83.7614 152.706 84.0388C152.866 84.8713 153.144 85.2371 153.71 85.3884C154.041 85.4767 154.041 85.4767 153.785 85.5398C153.635 85.5776 153.016 85.7037 152.396 85.8172C148.955 86.4605 146.486 88.4155 144.766 91.8588C144.499 92.3885 144.21 93.0191 144.125 93.2588C143.975 93.675 143.975 93.675 144.37 93.9399C144.584 94.0912 144.702 94.2174 144.648 94.2174C144.488 94.2174 144.466 94.7093 144.605 95.2011C144.755 95.7309 145.418 96.3111 145.995 96.4246C146.23 96.475 146.411 96.5381 146.379 96.5633C146.358 96.5886 145.792 96.5255 145.118 96.412C143.473 96.1345 140.897 96.2228 139.839 96.5759C137.531 97.3579 135.661 98.8967 134.015 101.369L133.577 102.025L134.005 102.428C134.368 102.769 134.421 102.87 134.325 103.072C134.144 103.488 134.315 104.144 134.731 104.648C135.244 105.241 136.826 106.124 138.033 106.477C139.284 106.843 141.442 106.868 142.778 106.527C145.984 105.72 151.22 102.39 151.22 101.167C151.22 100.801 151.028 100.372 150.889 100.461C150.836 100.511 150.793 100.511 150.793 100.486C150.793 100.448 151.156 100.12 151.594 99.7417C152.032 99.376 152.396 99.0354 152.396 98.9976C152.396 98.9598 152.171 98.8336 151.893 98.7201C148.164 97.2066 147.384 96.8786 147.747 96.9543C148.378 97.1057 150.323 97.0552 151.06 96.8786C153.283 96.3363 155.73 94.8858 157.856 92.8173C160.432 90.3074 161.212 89.1218 160.688 88.5038C160.549 88.3524 160.624 88.2011 161.233 87.4191C161.618 86.9146 161.917 86.4983 161.896 86.4731C161.853 86.4479 160.752 86.2209 158.059 85.7163C157.311 85.565 157.237 85.5398 157.643 85.5272C158.156 85.5145 159.182 85.1362 160.218 84.5938C161.703 83.8118 163.616 82.046 165.038 80.1541C166.149 78.6784 167.442 76.6351 167.699 75.9541C167.923 75.3613 167.923 74.7054 167.699 74.7685C167.528 74.8063 167.592 74.6549 168.318 73.3054L168.853 72.3342L168.083 72.2964C167.111 72.2459 164.215 72.4729 162.868 72.7126C160.955 73.0405 160.955 73.0405 161.629 72.8261C162.623 72.4982 164.236 71.3126 165.529 69.9252C167.592 67.7305 170.52 62.2944 170.263 61.1467C170.242 61.0205 170.178 60.9575 170.124 60.9953C169.996 61.0836 170.156 60.6169 170.669 59.4061C170.915 58.8385 171.097 58.334 171.075 58.2836C171.054 58.2331 170.83 58.2331 170.562 58.2836ZM160.592 73.2297C160.56 73.2675 160.464 73.2801 160.389 73.2423C160.304 73.2045 160.336 73.1666 160.453 73.1666C160.571 73.154 160.635 73.1919 160.592 73.2297ZM146.807 96.6895C146.775 96.7273 146.679 96.7399 146.604 96.7021C146.518 96.6642 146.55 96.6264 146.668 96.6264C146.785 96.6138 146.85 96.6516 146.807 96.6895ZM147.234 96.8156C147.202 96.8534 147.106 96.866 147.031 96.8282C146.946 96.7904 146.978 96.7525 147.095 96.7525C147.213 96.7399 147.277 96.7777 147.234 96.8156Z" fill="#993C18"/>
<path d="M145.898 64.1739C145.407 65.9397 144.915 68.1974 144.637 69.938C144.445 71.1236 144.338 76.484 144.509 76.3579C144.552 76.32 144.562 76.4588 144.53 76.6732C144.445 77.1777 144.755 78.9309 145.15 80.1291C145.952 82.5886 148.324 85.6409 149.425 85.6409C150.034 85.6409 150.75 84.758 151.316 83.3075C151.883 81.8949 152.032 80.4822 152.011 76.875C152 75.3615 151.957 74.7813 151.765 73.9362C151.06 70.7578 149.564 67.4406 147.245 63.9091C146.828 63.2658 146.454 62.7108 146.422 62.6604C146.379 62.6099 146.144 63.291 145.898 64.1739Z" fill="#993C18"/>
<path d="M62.1713 64.4261C58.912 69.5722 57.4373 73.974 57.6617 77.884C57.6938 78.5777 57.7472 79.6498 57.7686 80.2804C57.822 81.7056 58.0892 82.8534 58.6556 83.9759C59.1258 84.9093 59.596 85.4643 60.0234 85.5904C61.1134 85.9183 63.6461 82.8408 64.533 80.129C64.8964 79.0317 65.249 77.165 65.1528 76.875C65.1208 76.7614 65.1421 76.3831 65.2063 76.0173C65.2597 75.6641 65.3131 74.5416 65.3131 73.5326C65.3238 71.5776 65.1528 69.9505 64.704 67.7938C64.3514 66.0658 63.4537 62.6856 63.3575 62.6856C63.3041 62.6856 62.7698 63.4676 62.1713 64.4261Z" fill="#993C18"/>
<path d="M68.1877 74.1756C66.168 79.0315 65.4734 82.1469 65.5375 86.0442C65.5588 87.1289 65.6016 87.9488 65.6443 87.8731C65.6978 87.7848 65.6978 87.8983 65.6657 88.1127C65.4627 89.3488 66.4886 92.5777 67.5999 94.2552C68.4121 95.466 69.1067 95.7687 69.844 95.2263C70.5921 94.684 71.9279 92.1993 72.3981 90.4966C72.6118 89.7019 72.8896 88.0118 72.8255 87.8857C72.7935 87.8353 72.8255 87.2046 72.8896 86.4857C73.1675 83.2442 72.3446 79.5108 70.3249 74.8567C69.8761 73.8099 69.3952 72.7756 69.2777 72.536L69.0533 72.0945L68.1877 74.1756Z" fill="#993C18"/>
<path d="M140.224 73.0405C138.899 75.8027 137.766 78.9181 137.274 81.1379C136.857 83.0424 136.772 84.0893 136.836 86.511C136.911 89.5002 137.253 91.0137 138.289 93.0318C139.743 95.8696 140.779 96.1976 142.083 94.2552C143.088 92.7291 143.91 90.3074 144.017 88.5416C144.039 88.0876 144.103 87.1416 144.156 86.4353C144.434 82.8028 143.558 78.8676 141.314 73.6081L140.672 72.0946L140.224 73.0405Z" fill="#993C18"/>
<path d="M75.4012 81.2516C75.3798 81.3399 75.2516 82.2354 75.1127 83.2444C74.9096 84.7958 74.8776 85.6156 74.8669 88.6679C74.8455 92.5653 74.9417 93.7256 75.4012 95.668C76.1065 98.5942 77.5812 101.092 79.5475 102.63C80.8298 103.639 81.5672 103.513 82.1656 102.201C82.5503 101.331 82.9564 99.6158 82.9992 98.632C83.0098 98.2536 83.0526 97.2572 83.0953 96.4248C83.1915 94.7221 83.0847 93.7383 82.6572 92.1491C81.9519 89.5256 80.5413 87.0283 78.0728 84.0138C76.5019 82.0967 75.4653 81.0246 75.4012 81.2516Z" fill="#993C18"/>
<path d="M132.562 82.9543C129.474 86.5363 127.913 89.1598 127.069 92.1868C126.727 93.4481 126.481 95.4788 126.588 96.3491C126.62 96.6644 126.674 97.4968 126.695 98.1905C126.77 100.309 127.4 102.567 128.074 103.072C128.896 103.677 130.168 102.933 131.782 100.927C132.786 99.6914 133.449 98.4176 133.972 96.7527C134.368 95.504 134.688 93.8013 134.603 93.4481C134.56 93.3094 134.582 93.2085 134.656 93.2085C134.742 93.2085 134.763 93.1076 134.731 92.9436C134.699 92.8049 134.742 91.9724 134.838 91.0895C134.945 89.967 134.977 88.9201 134.934 87.5958C134.859 85.1868 134.421 81.1002 134.24 81.1002C134.208 81.1002 133.449 81.9327 132.562 82.9543Z" fill="#993C18"/>
<path d="M84.5484 92.8554C85.1041 94.4824 85.2857 95.113 85.1789 95.0374C85.1148 94.9869 85.072 95.1887 85.072 95.5671C85.072 96.5509 86.3009 99.5149 87.765 102.05C90.0625 106.048 93.418 108.47 96.656 108.47C97.9811 108.47 98.4299 108.129 98.5795 107.057C98.5902 106.919 98.665 106.767 98.7398 106.717C98.8467 106.629 98.8573 106.376 98.7612 105.481C98.0559 98.6068 94.476 94.9365 86.3223 92.7166C85.2857 92.4265 84.4095 92.1995 84.3774 92.1995C84.3453 92.1995 84.4308 92.5022 84.5484 92.8554Z" fill="#993C18"/>
<path d="M123.639 92.6409C117.131 94.3815 113.594 96.9797 111.927 101.255C111.296 102.857 110.751 106.01 110.986 106.666C111.04 106.792 111.093 107.032 111.114 107.196C111.253 108.142 111.745 108.47 113.027 108.47C116.404 108.47 119.706 105.998 122.153 101.621C123.329 99.5401 124.526 96.6392 124.59 95.7563C124.622 95.2518 124.611 95.0878 124.515 95.1509C124.398 95.2392 124.483 94.9617 125.081 93.2211C125.381 92.3635 125.413 92.1995 125.284 92.2121C125.231 92.2121 124.494 92.4139 123.639 92.6409Z" fill="#993C18"/>
<path d="M79.5364 103.942C77.474 104.257 74.8879 105.506 72.4087 107.398C71.2545 108.268 69.0532 110.147 69.0425 110.248C69.0425 110.299 69.3417 110.45 69.7157 110.614C70.421 110.917 70.6989 111.119 70.4103 111.119C70.3035 111.119 70.2073 111.27 70.1645 111.497C70.0149 112.317 70.6454 112.821 72.5796 113.439C78.6922 115.394 83.0736 114.612 86.1512 110.993C86.9527 110.059 87.2306 109.34 87.0168 108.798C86.9207 108.533 86.9527 108.407 87.3267 107.827C87.5512 107.461 87.7435 107.133 87.7435 107.095C87.7435 107.057 87.4763 106.792 87.1558 106.515C84.7086 104.409 82.1439 103.538 79.5364 103.942Z" fill="#993C18"/>
<path d="M127.422 103.98C125.765 104.358 124.034 105.254 122.656 106.452L121.94 107.083L122.367 107.764C122.763 108.382 122.795 108.47 122.677 108.773C122.453 109.353 122.72 110.047 123.532 110.993C126.61 114.612 130.991 115.394 137.104 113.439C139.027 112.821 139.668 112.317 139.519 111.51C139.487 111.308 139.369 111.119 139.273 111.093C139.177 111.068 139.465 110.866 139.925 110.652L140.769 110.274L139.422 109.113C136.174 106.301 133.545 104.737 131.087 104.131C129.88 103.841 128.341 103.778 127.422 103.98Z" fill="#993C18"/>
<path d="M104.029 106.843C103.516 107.019 102.747 107.89 102.544 108.533C102.405 108.962 102.373 109.29 102.426 109.946C102.469 110.412 102.49 111.005 102.49 111.245C102.469 112.443 103.153 113.679 104.04 114.019C105.515 114.6 107.086 113.364 107.16 111.56C107.171 111.207 107.246 110.665 107.31 110.337C107.417 109.87 107.417 109.58 107.31 109.063C106.979 107.31 105.525 106.326 104.029 106.843Z" fill="#993C18"/>
<path d="M92.6056 109.302C89.6562 109.883 86.3328 112.165 82.6139 116.126L82.0369 116.757L82.8277 117.047C83.2658 117.211 83.5436 117.362 83.4475 117.387C83.2017 117.463 83.0841 117.993 83.2337 118.371C83.4047 118.812 84.0352 119.14 85.2428 119.43C91.3126 120.881 95.5871 119.897 98.6006 116.366C99.338 115.495 99.7761 114.726 99.8189 114.209C99.8723 113.679 99.8189 113.376 99.6906 113.465C99.5624 113.566 99.5624 113.553 100.107 112.544C100.3 112.178 100.46 111.838 100.46 111.762C100.46 111.573 99.9364 111.182 98.8892 110.564C96.6771 109.252 94.7642 108.861 92.6056 109.302Z" fill="#993C18"/>
<path d="M113.914 109.302C113.465 109.391 112.749 109.618 112.311 109.807C111.499 110.147 109.896 111.081 109.458 111.484L109.202 111.711L109.64 112.544C109.875 113.011 110.024 113.389 109.971 113.389C109.779 113.389 109.853 114.398 110.089 114.915C110.206 115.193 110.655 115.836 111.072 116.34C114.053 119.897 118.36 120.894 124.44 119.43C125.648 119.14 126.278 118.812 126.449 118.371C126.599 117.993 126.481 117.463 126.236 117.4C126.139 117.362 126.428 117.211 126.887 117.034L127.721 116.731L126.727 115.71C122.859 111.762 120.08 109.908 117.088 109.29C115.955 109.063 115.015 109.063 113.914 109.302Z" fill="#993C18"/>
<g clip-path="url(#clip1_1_315)">
<path d="M103.851 32.8957C101.621 34.0383 98.2039 35.5456 96.0405 36.341C93.5591 37.2463 91.0557 37.9406 88.4418 38.446C87.9076 38.5515 85.0774 39.0217 82.5078 39.4392C81.8896 39.5359 81.3289 39.6501 81.2627 39.6853L81.1346 39.7512V40.6389C81.1346 42.1858 81.3996 48.237 81.5982 51.3044C81.6733 52.4118 81.9117 55.343 81.9559 55.633C82.0707 56.4548 82.6005 58.9465 82.9493 60.3264C83.722 63.3806 84.4107 65.4372 85.6205 68.2981C86.2431 69.7702 86.8259 70.8601 88.1902 73.1013C89.1968 74.7449 89.9298 75.8215 91.1572 77.4519C92.7114 79.5085 94.451 81.3015 96.9721 83.4328C99.8287 85.8542 100.217 86.1575 101.48 86.9045C101.926 87.1726 102.469 87.5066 102.694 87.6516C103.167 87.9636 104.425 88.5876 104.716 88.6579C104.911 88.7063 104.942 88.6975 105.357 88.5261C106.169 88.1833 106.853 87.8406 107.295 87.5505C107.538 87.3967 108.107 87.0451 108.562 86.7727C109.661 86.1179 110.408 85.5378 112.902 83.4109C114.576 81.9826 114.774 81.7937 116.046 80.4709C117.71 78.7395 117.997 78.3967 119.476 76.362C120.669 74.7229 121.344 73.6682 122.664 71.4094C123.768 69.511 124.828 67.0896 125.826 64.1804C126.581 61.9699 127.627 57.5271 127.91 55.3254C128.214 52.9699 128.567 46.5847 128.713 40.841C128.74 39.7644 128.735 39.7116 128.66 39.6853C128.4 39.6106 126.497 39.2678 125.066 39.0437C123.115 38.7317 121.216 38.3933 120.231 38.1823C117.406 37.5671 114.659 36.7014 111.843 35.5368C110.107 34.8205 107.825 33.7834 106.12 32.9353C104.871 32.3113 104.99 32.3113 103.851 32.8957Z" fill="#993C18"/>
<path d="M97.2999 68.75H97.4249C97.8249 68.75 98.0249 68.5667 98.0249 68.2C98.0249 68.0667 97.9999 67.925 97.9499 67.775L95.6999 61.7H91.3249L89.1499 67.675C89.0999 67.8083 89.0749 67.9333 89.0749 68.05C89.0749 68.2667 89.1332 68.4417 89.2499 68.575C89.3665 68.6917 89.4915 68.75 89.6249 68.75H89.7499V69H86.9749V68.75H87.0999C87.3165 68.75 87.5249 68.625 87.7249 68.375C87.9415 68.1083 88.1165 67.8 88.2499 67.45L93.9749 52.2L99.5749 67.3C99.6915 67.6333 99.8499 67.9583 100.05 68.275C100.267 68.5917 100.542 68.75 100.875 68.75H101V69H97.2999V68.75ZM91.5749 60.85H95.4249L93.4999 55.625L91.5749 60.85Z" fill="#EEC373"/>
<path d="M109.125 61.75H109.25C109.383 61.75 109.5 61.7 109.6 61.6C109.7 61.5 109.783 61.3833 109.85 61.25C109.933 61.1167 109.992 60.975 110.025 60.825C110.058 60.6583 110.075 60.5083 110.075 60.375V47.05C110.075 46.9333 110.058 46.8 110.025 46.65C109.992 46.5 109.933 46.3583 109.85 46.225C109.783 46.0917 109.7 45.9833 109.6 45.9C109.5 45.8 109.392 45.75 109.275 45.75H109.15V45.5H112.7V45.75H112.575C112.442 45.75 112.325 45.8 112.225 45.9C112.125 45.9833 112.033 46.0917 111.95 46.225C111.883 46.3583 111.825 46.5 111.775 46.65C111.742 46.8 111.725 46.9333 111.725 47.05V52.225L117.525 46.45C117.658 46.3167 117.725 46.1583 117.725 45.975C117.725 45.825 117.658 45.75 117.525 45.75V45.5H120.225V45.75C119.892 45.7667 119.592 45.8667 119.325 46.05C119.075 46.2333 118.8 46.475 118.5 46.775L112.575 52.7C113.658 52.7333 114.533 52.9667 115.2 53.4C115.867 53.8333 116.392 54.4333 116.775 55.2L118.75 59.2C118.867 59.45 119.017 59.725 119.2 60.025C119.4 60.3083 119.617 60.5833 119.85 60.85C120.1 61.1 120.375 61.3167 120.675 61.5C120.975 61.6667 121.292 61.75 121.625 61.75V62H120.375C119.892 62 119.475 61.9333 119.125 61.8C118.775 61.65 118.467 61.4583 118.2 61.225C117.95 60.975 117.725 60.7 117.525 60.4C117.342 60.1 117.175 59.8 117.025 59.5L115 55.475C114.683 54.8583 114.242 54.3917 113.675 54.075C113.125 53.7417 112.475 53.5583 111.725 53.525V60.375C111.725 60.5083 111.742 60.65 111.775 60.8C111.808 60.95 111.858 61.1 111.925 61.25C111.992 61.3833 112.075 61.5 112.175 61.6C112.275 61.6833 112.383 61.7333 112.5 61.75H112.675V62H109.125V61.75Z" fill="#EEC373"/>
<path d="M104.933 46.1538V69.2307" stroke="#EEC373"/>
</g>
</g>
<defs>
<clipPath id="clip0_1_315">
<rect width="134" height="121" fill="white" transform="translate(38)"/>
</clipPath>
<clipPath id="clip1_1_315">
<rect width="47.5962" height="56.25" fill="white" transform="translate(81.1346 32.4519)"/>
</clipPath>
</defs>
</svg>
