<svg width="40" height="40" viewBox="0 0 40 40" fill="none" xmlns="http://www.w3.org/2000/svg">
<g clip-path="url(#clip0_36_70)">
<path d="M21.4118 0.450871C18.6068 0.246685 15.7907 0.648844 13.155 1.63001C10.5193 2.61117 8.12578 4.14834 6.13711 6.13701C4.14845 8.12567 2.61128 10.5192 1.63012 13.1549C0.648951 15.7906 0.246792 18.6067 0.450977 21.4117C1.15686 31.7842 10.2157 39.6077 20.6078 39.6077H27.8431C28.9216 39.6077 29.8039 38.7254 29.8039 37.6469C29.8039 36.5685 28.9216 35.6862 27.8431 35.6862H20.6471C13.3333 35.6862 6.62745 30.9411 4.80392 23.8626C1.88235 12.4901 12.4706 1.88224 23.8431 4.82342C30.9412 6.62734 35.6863 13.3332 35.6863 20.6469V22.8038C35.6863 24.3528 34.2941 25.8822 32.7451 25.8822C31.1961 25.8822 29.8039 24.3528 29.8039 22.8038V20.3528C29.8039 15.4313 26.3137 10.9999 21.451 10.3136C19.9038 10.0836 18.3241 10.2264 16.8434 10.7303C15.3626 11.2342 14.0236 12.0845 12.9379 13.2105C11.8522 14.3365 11.0512 15.7055 10.6016 17.2037C10.1519 18.7018 10.0667 20.2857 10.3529 21.8234C10.6968 23.6763 11.5679 25.3907 12.8616 26.761C14.1554 28.1312 15.817 29.0992 17.6471 29.5489C21.2549 30.392 24.6863 29.2352 26.9412 26.9411C28.6863 29.3332 32.1765 30.5881 35.3725 29.3136C38 28.2744 39.6078 25.5881 39.6078 22.7646V20.6273C39.6078 10.2156 31.7843 1.15675 21.4118 0.450871ZM20 25.8822C16.7451 25.8822 14.1176 23.2548 14.1176 19.9999C14.1176 16.745 16.7451 14.1175 20 14.1175C23.2549 14.1175 25.8824 16.745 25.8824 19.9999C25.8824 23.2548 23.2549 25.8822 20 25.8822Z" fill="black"/>
</g>
<defs>
<clipPath id="clip0_36_70">
<rect width="40" height="40" fill="white"/>
</clipPath>
</defs>
</svg>
