<svg width="76" height="69" viewBox="0 0 76 69" fill="none" xmlns="http://www.w3.org/2000/svg">
<g clip-path="url(#clip0_1_274)">
<path d="M18.2953 0.738675C14.7056 2.67552 12.9801 4.55497 12.3164 7.2522C12.2139 7.68261 12.1837 8.03411 12.1596 9.12448C12.1294 10.3942 12.1354 10.4803 12.2561 10.7098C12.3225 10.8389 12.4492 10.9896 12.5336 11.0326C13.1007 11.3411 14.5547 10.8461 15.5502 10.0068C16.0087 9.61945 16.7448 8.70842 17.0766 8.10585C17.3903 7.53914 17.8609 6.39856 18.0842 5.66686C18.3798 4.66975 18.6694 3.22788 18.6875 2.6253C18.6995 2.3025 18.7659 1.7071 18.8323 1.29103C18.9771 0.437388 18.9771 0.430215 18.9167 0.430215C18.8866 0.430215 18.609 0.573685 18.2953 0.738675Z" fill="#993C18"/>
<path d="M57.2458 0.552172C57.3604 1.08301 57.5414 2.56792 57.4932 2.53205C57.3423 2.42445 57.65 4.08153 58.0301 5.44449C58.4645 6.97962 59.0437 8.19194 59.8039 9.13884C60.727 10.2938 61.8733 11.0039 62.9532 11.0972C63.822 11.1761 64.003 10.9394 64.0633 9.67685C64.2503 5.83186 62.362 3.09159 57.9276 0.75303C57.5897 0.573692 57.2941 0.430223 57.2699 0.430223C57.2398 0.430223 57.2338 0.487611 57.2458 0.552172Z" fill="#993C18"/>
<path d="M8.95602 3.24252C7.99071 5.38739 7.44169 7.13055 7.21846 8.75176C7.08573 9.69866 7.14003 11.9081 7.315 12.7474C7.53822 13.8665 8.03898 14.9927 8.5518 15.5594C8.77502 15.8033 8.85949 15.8535 9.07065 15.8535C9.57744 15.8535 10.1687 15.1649 10.6393 14.0243C10.9651 13.2352 11.2607 12.0014 11.2124 11.657C11.1823 11.492 11.1883 11.4633 11.2426 11.5494C11.2909 11.6355 11.3029 11.6212 11.2728 11.4777C11.2607 11.3773 11.2667 10.9899 11.2909 10.6169C11.3814 9.38303 11.2245 8.06311 10.8082 6.59971C10.5608 5.7102 10.0179 4.24681 9.59554 3.31426L9.26371 2.56821L8.95602 3.24252Z" fill="#993C18"/>
<path d="M66.603 3.30708C65.7946 5.10763 65.2094 6.97274 64.9861 8.43613C64.8051 9.64127 64.8474 11.5279 65.0766 12.5896C65.3602 13.9023 66.048 15.2653 66.6453 15.7029C66.7659 15.789 66.9469 15.8535 67.0978 15.8535C67.514 15.8535 67.9303 15.3155 68.4311 14.1391C68.7086 13.4863 68.9982 12.2668 68.9499 11.9583C68.9258 11.822 68.9379 11.7718 68.9861 11.8077C69.0284 11.8435 69.0344 11.8292 69.0103 11.7718C68.9801 11.7216 68.9982 11.3629 69.0344 10.9755C69.2456 9.00283 68.6543 6.37734 67.321 3.41468L66.9409 2.56821L66.603 3.30708Z" fill="#993C18"/>
<path d="M16.6363 9.99958C15.3452 10.5161 14.8264 10.7671 14.0843 11.2262C12.0089 12.5318 10.7419 14.1889 10.2713 16.2118C10.1265 16.8574 9.98776 18.3495 10.0602 18.5504C10.1205 18.7225 10.1326 18.7656 10.1446 18.9019C10.1567 19.1314 10.4764 19.4399 10.754 19.4973C11.0617 19.5618 12.0451 19.4758 12.2502 19.3682C12.3226 19.3323 12.3829 19.3108 12.3829 19.3251C12.3829 19.3395 12.0752 19.6264 11.7072 19.9636C9.5956 21.8645 8.46136 23.6077 8.00284 25.645C7.91837 26.0323 7.88821 26.4054 7.88821 27.259C7.88821 27.8687 7.91234 28.4641 7.93647 28.5861C7.96664 28.7439 7.96664 28.7726 7.91837 28.6937C7.87614 28.6148 7.87011 28.708 7.89424 29.0165C8.02697 30.4871 8.68459 30.6449 10.2713 29.576C10.8626 29.1815 11.3754 28.6865 11.7374 28.1557C12.0632 27.6751 12.5941 26.4843 12.8233 25.7167C13.0345 25.0137 13.306 23.5431 13.2577 23.3279C13.2336 23.206 13.2457 23.1701 13.2939 23.2132C13.3482 23.249 13.3543 23.2132 13.3301 23.084C13.306 22.9908 13.3301 22.5532 13.3784 22.1228C13.4267 21.6924 13.481 20.8244 13.4991 20.1931C13.5413 18.9162 13.5715 18.5719 13.6439 18.6006C13.7464 18.6293 14.4945 17.9119 14.935 17.3596C15.671 16.4342 16.22 15.351 16.7872 13.7011C17.2155 12.4529 17.4568 11.3769 17.2758 11.5132C17.2155 11.5491 17.4327 10.5376 17.6016 9.97089C17.7042 9.61939 17.7042 9.61221 17.6499 9.61221C17.6197 9.61221 17.1672 9.78438 16.6363 9.99958Z" fill="#993C18"/>
<path d="M58.5369 9.64809C58.5369 9.69113 58.742 10.552 58.9411 11.3626C58.9652 11.4558 58.9532 11.4773 58.8989 11.4415C58.8385 11.3984 58.8265 11.4702 58.8506 11.7714C58.923 12.5964 59.8219 15.0712 60.4614 16.219C60.6304 16.5203 60.9622 17.0153 61.2035 17.3237C61.6621 17.912 62.5791 18.7871 62.5791 18.6436C62.5791 18.5934 62.5912 18.5719 62.6093 18.5934C62.6455 18.6293 62.7842 21.7426 62.7782 22.3093C62.7722 22.5819 62.7903 22.6608 62.8204 22.5604C62.8566 22.4671 62.8627 22.5389 62.8385 22.7397C62.8023 23.1343 63.0557 24.6622 63.3091 25.5661C63.5444 26.4054 64.0753 27.6249 64.4313 28.1557C64.7933 28.6865 65.3061 29.1815 65.8973 29.576C66.8627 30.2217 67.4418 30.401 67.8219 30.1643C68.0814 30.0065 68.2744 29.5043 68.2322 29.1026C68.2141 28.9376 68.2201 28.8515 68.2443 28.9017C68.2744 28.952 68.2925 28.8443 68.2986 28.6435C68.2986 28.457 68.3046 27.8616 68.3106 27.3307C68.3287 26.0826 68.1477 25.1357 67.6952 24.0812C67.1764 22.8617 65.9396 21.262 64.558 20.021C63.7978 19.3395 63.5142 19.0597 63.8642 19.3251C64.0271 19.4543 65.0527 19.569 65.4147 19.4973C65.6922 19.4399 66.012 19.1314 66.024 18.9019C66.0421 18.701 66.0482 18.6652 66.0964 18.6078C66.1688 18.5217 66.1447 17.5604 66.0482 16.922C65.8189 15.3367 65.282 14.1746 64.2322 12.9838C63.1402 11.7428 61.2458 10.5663 59.1462 9.82743C58.9049 9.74135 58.6636 9.65526 58.6213 9.63375C58.5731 9.61222 58.5369 9.6194 58.5369 9.64809Z" fill="#993C18"/>
<path d="M4.88351 12.4458C4.51549 13.9092 4.40689 14.3755 4.27416 15.1C4.00267 16.6064 3.9182 17.6251 3.96647 18.8302C3.9906 19.4184 4.0087 19.9851 4.0087 20.0856C4.01473 20.8675 4.28623 22.1372 4.61202 22.9191C4.96194 23.744 5.59543 24.6766 6.10221 25.1142C6.47024 25.4298 6.75983 25.48 7.07959 25.2863C7.29678 25.1501 7.59844 24.5977 7.81564 23.9521C8.17159 22.8904 8.25002 22.2233 8.24399 20.3725C8.24399 19.4686 8.21986 19.153 8.11126 18.6724C7.74927 17.0727 7.01322 15.473 5.72816 13.5218C4.87144 12.2234 4.92574 12.288 4.88351 12.4458Z" fill="#993C18"/>
<path d="M70.9047 12.8548C70.036 14.1891 69.8369 14.5047 69.4688 15.1718C68.3406 17.2234 67.852 18.9953 67.9002 20.9178C67.9063 21.3984 67.9424 21.7786 67.9666 21.7571C67.9907 21.7356 67.9967 21.8073 67.9726 21.9077C67.8821 22.3453 68.2743 23.945 68.6544 24.6982C68.9078 25.1932 69.1491 25.394 69.499 25.394C69.8369 25.394 70.3497 24.9278 70.8746 24.1602C71.3271 23.4787 71.6167 22.8546 71.8399 22.0727C72.1415 21.0039 72.2019 20.2793 72.1958 18.1488C72.1898 16.8863 72.1657 16.542 72.0329 15.717C71.8761 14.7558 71.3271 12.3383 71.2667 12.3455C71.2486 12.3455 71.0857 12.575 70.9047 12.8548Z" fill="#993C18"/>
<path d="M1.74031 23.9379C1.77047 24.483 1.79461 25.143 1.79461 25.4084C1.79461 25.6667 1.80667 25.8604 1.82477 25.8245C1.84287 25.7958 1.86097 25.9823 1.86701 26.2406C1.87907 26.8862 2.14453 28.4715 2.40396 29.4041C3.04348 31.7426 4.15358 33.3495 5.75841 34.2533C6.87455 34.8846 7.3934 34.5475 7.4839 33.1199C7.50803 32.7971 7.52613 31.9793 7.5201 31.3122C7.5201 30.1286 7.51406 30.0712 7.321 29.4112C6.77198 27.5031 5.62568 25.9249 3.62266 24.3324C3.10381 23.9163 1.77651 22.9551 1.72824 22.9551C1.70411 22.9551 1.71618 23.3998 1.74031 23.9379Z" fill="#993C18"/>
<path d="M73.7766 23.4214C70.6032 25.6954 69.0647 27.7613 68.6967 30.2721C68.6002 30.9535 68.6062 32.5604 68.7088 32.8904C68.7389 32.9765 68.7329 33.0052 68.6907 32.9765C68.5941 32.9047 68.7691 33.8875 68.8958 34.1457C69.1552 34.6766 69.656 34.6909 70.5127 34.1888C71.8762 33.3854 72.8717 32.0726 73.5112 30.2147C73.9033 29.0741 74.3136 27.0225 74.2472 26.549C74.2291 26.4055 74.2352 26.3266 74.2653 26.3769C74.2955 26.4199 74.3136 26.3195 74.3136 26.1258C74.3196 25.9393 74.3498 25.3367 74.392 24.7843C74.4343 24.232 74.4765 23.5935 74.4946 23.364C74.5127 23.1416 74.5006 22.9551 74.4765 22.9551C74.4524 22.9551 74.1386 23.1631 73.7766 23.4214Z" fill="#993C18"/>
<path d="M12.4974 27.6681C10.0961 30.6738 9.02224 33.2921 9.15497 35.8315C9.17307 36.2619 9.20324 36.8788 9.21531 37.1945C9.25754 38.1772 9.56523 39.2389 9.89102 39.49C10.3073 39.82 10.7839 39.6478 11.5562 38.9017C12.2862 38.1844 12.8111 37.3738 13.1489 36.4197C13.3963 35.7167 13.5954 34.82 13.6195 34.2533C13.6316 34.0166 13.6738 33.4355 13.71 32.9621C13.7824 32.0941 13.7583 30.8818 13.6437 29.8416C13.5532 28.988 13.2093 26.9005 13.161 26.9005C13.1369 26.9005 12.8412 27.2448 12.4974 27.6681Z" fill="#993C18"/>
<path d="M62.9531 27.2233C62.567 29.2247 62.4463 30.5446 62.4705 32.4025C62.4825 33.2347 62.5006 33.909 62.5187 33.8946C62.5368 33.8803 62.5549 34.0524 62.5549 34.2748C62.567 34.777 62.8083 35.8817 63.0557 36.5273C63.5142 37.7396 64.4614 38.9591 65.3543 39.4971C65.8973 39.8199 66.3196 39.6478 66.5851 39.0021C66.9109 38.2059 67.0135 37.3164 67.0074 35.3293C67.0074 34.3896 66.9833 34.1672 66.8445 33.5575C66.4222 31.7282 65.3966 29.7914 63.7917 27.8187L63.0195 26.8718L62.9531 27.2233Z" fill="#993C18"/>
<path d="M0.678467 33.1199C0.678467 33.1342 0.787064 33.4068 0.925827 33.7224C1.20939 34.4039 1.29988 34.6693 1.22749 34.6191C1.13699 34.5474 1.11889 34.8989 1.19129 35.2432C1.37832 36.1112 2.79008 38.6004 3.67696 39.6047C4.42507 40.4583 5.37228 41.1972 5.98766 41.4052C6.20486 41.477 6.28329 41.52 6.16866 41.4985C6.05403 41.477 5.69807 41.4124 5.38435 41.355C4.67846 41.2331 3.25463 41.104 2.50652 41.104H1.94543L2.26519 41.6922C2.69958 42.4956 2.69958 42.4956 2.62115 42.4382C2.51255 42.3593 2.46429 42.7323 2.54272 43.0408C2.69355 43.6434 4.11738 45.738 4.98012 46.6419C5.55328 47.2373 6.31949 47.847 6.81421 48.1125C7.40546 48.4209 7.98465 48.6361 8.27424 48.6433L8.55177 48.6505L8.28027 48.7079C8.12944 48.7437 7.53216 48.8585 6.95297 48.9661C6.37379 49.0737 5.8851 49.1741 5.867 49.1885C5.85493 49.2028 5.867 49.2387 5.89717 49.2674C6.06006 49.4037 6.72975 50.3004 6.63925 50.2645C6.53065 50.2215 6.47032 50.3362 6.47032 50.6017C6.47032 50.8742 6.79008 51.3764 7.321 51.9431C9.42658 54.1884 11.1279 55.1712 12.9862 55.1927C13.3662 55.1927 13.7765 55.1783 13.8911 55.1425C14.0058 55.1138 13.68 55.2644 13.1671 55.4725C11.7433 56.0607 11.2969 56.2615 11.2969 56.3117C11.2969 56.3333 11.4718 56.5126 11.689 56.6991C12.0208 56.9861 12.3044 57.3017 12.0932 57.1439C12.0148 57.0865 11.9002 57.316 11.9002 57.5312C11.9002 58.2414 14.8323 60.1209 16.6664 60.5871C17.4205 60.7808 18.6392 60.7665 19.3451 60.5585C20.0269 60.3576 20.9198 59.8555 21.2094 59.5183C21.4447 59.2314 21.5472 58.8583 21.4386 58.6288C21.3904 58.5068 21.4145 58.4566 21.6136 58.2773C21.7463 58.1625 21.8549 58.0477 21.8549 58.019C21.8549 57.9903 21.6981 57.7321 21.505 57.4452C20.5276 55.9889 19.2848 55.0923 17.8368 54.7981C17.2999 54.6905 15.6166 54.7551 14.9771 54.9057C14.1868 55.0923 14.0902 55.0923 14.6211 54.9273C14.9288 54.834 15.2365 54.6834 15.3572 54.5686C15.5865 54.3606 15.7252 53.966 15.6649 53.6863C15.6347 53.5571 15.6709 53.4997 15.8157 53.4065C15.9183 53.3491 16.0027 53.2702 16.0027 53.2415C16.0027 53.2128 15.9062 52.9689 15.7916 52.7035C14.8082 50.4295 13.2335 49.1096 11.0797 48.7724C10.3979 48.6648 10.3135 48.6361 10.5306 48.5572C10.8383 48.4568 11.0374 48.1411 11.0676 47.7107C11.0736 47.5673 11.1219 47.474 11.1883 47.4453C11.327 47.3951 11.327 47.4023 11.1159 46.6275C10.4643 44.2675 9.27575 42.7969 7.25463 41.8787C7.00727 41.7711 6.89867 41.6994 7.01331 41.728C7.12794 41.7639 7.50803 41.7854 7.85795 41.7854C8.34664 41.7854 8.5397 41.7567 8.71466 41.6563C8.94996 41.5128 9.15508 41.1111 9.10682 40.8887C9.08872 40.8027 9.11889 40.7453 9.19128 40.7238C9.33005 40.6807 9.33005 40.5731 9.21542 39.8342C8.84739 37.5387 7.71315 35.7597 5.93337 34.6837C4.98616 34.117 3.55629 33.6292 1.91527 33.3207C1.38435 33.2275 0.889628 33.1342 0.81723 33.1127C0.738799 33.0983 0.678467 33.0983 0.678467 33.1199Z" fill="#993C18"/>
<path d="M75.1882 33.1486C73.7885 33.4068 73.1731 33.5431 72.5034 33.7511C69.5834 34.6263 67.9122 36.2332 67.1942 38.8586C67.0374 39.4254 66.8504 40.5946 66.9047 40.6879C66.9167 40.7238 66.9891 40.7453 67.0615 40.7525C67.1339 40.7525 67.158 40.774 67.1218 40.7955C67.0193 40.8385 67.0253 41.0681 67.1339 41.312C67.2847 41.6635 67.5864 41.7854 68.3406 41.7854C68.7086 41.7854 69.0887 41.7567 69.1852 41.728C69.2878 41.6922 69.1068 41.7926 68.787 41.9504C67.9665 42.345 67.2787 42.8543 66.7297 43.464C65.9574 44.3248 65.4205 45.3507 65.0887 46.6132C64.8956 47.3377 64.8956 47.4023 65.0706 47.4884C65.143 47.5242 65.1731 47.5529 65.1369 47.5529C65.0887 47.5601 65.0826 47.639 65.1068 47.7968C65.1973 48.2703 65.3541 48.4783 65.6739 48.5644C65.8609 48.6146 65.8609 48.6146 65.7161 48.6505C65.6317 48.672 65.2817 48.7437 64.9318 48.8083C62.9891 49.1741 61.5955 50.286 60.6241 52.2444C60.4733 52.5457 60.3104 52.9043 60.2621 53.0406C60.1777 53.2774 60.1777 53.2774 60.4009 53.428C60.5215 53.5141 60.5879 53.5858 60.5577 53.5858C60.4673 53.5858 60.4552 53.8656 60.5336 54.1454C60.6181 54.4466 60.9921 54.7766 61.3179 54.8412C61.4507 54.8699 61.5532 54.9057 61.5351 54.9201C61.5231 54.9344 61.2033 54.8986 60.8232 54.834C59.8941 54.6762 58.4401 54.7264 57.8428 54.9273C56.5396 55.372 55.4838 56.2472 54.5547 57.6532L54.3074 58.0262L54.5487 58.2558C54.7538 58.4494 54.784 58.5068 54.7297 58.6216C54.6271 58.8583 54.7237 59.2314 54.959 59.5183C55.2485 59.8555 56.1415 60.3576 56.8232 60.5585C57.5291 60.7665 58.7478 60.7808 59.5019 60.5871C61.3119 60.128 64.2682 58.2342 64.2682 57.5384C64.2682 57.3304 64.1596 57.0865 64.0811 57.1367C64.051 57.1654 64.0268 57.1654 64.0268 57.151C64.0268 57.1295 64.232 56.943 64.4793 56.7278C64.7267 56.5198 64.9318 56.3261 64.9318 56.3046C64.9318 56.2831 64.8051 56.2113 64.6482 56.1468C62.5427 55.2859 62.1022 55.0994 62.3074 55.1425C62.6633 55.2286 63.7614 55.1999 64.1777 55.0994C65.4326 54.791 66.8142 53.966 68.0148 52.7896C69.4688 51.362 69.9092 50.6877 69.6136 50.3362C69.5351 50.2502 69.5774 50.1641 69.9212 49.7193C70.1384 49.4324 70.3074 49.1956 70.2953 49.1813C70.2712 49.167 69.6497 49.0378 68.1294 48.7509C67.7071 48.6648 67.6648 48.6505 67.8941 48.6433C68.1837 48.6361 68.7629 48.4209 69.3481 48.1125C70.1867 47.6677 71.2666 46.6634 72.0691 45.5874C72.6965 44.7481 73.4265 43.586 73.5713 43.1986C73.698 42.8615 73.698 42.4884 73.5713 42.5243C73.4748 42.5458 73.511 42.4597 73.9212 41.6922L74.2229 41.1398L73.7885 41.1183C73.2395 41.0896 71.6045 41.2187 70.8443 41.355C69.7644 41.5415 69.7644 41.5415 70.1445 41.4196C70.7056 41.2331 71.6166 40.5588 72.3466 39.7697C73.511 38.5215 75.1641 35.4297 75.0193 34.7769C75.0072 34.7052 74.971 34.6693 74.9408 34.6909C74.8685 34.7411 74.959 34.4756 75.2485 33.787C75.3873 33.4642 75.4899 33.1772 75.4778 33.1486C75.4657 33.1199 75.339 33.1199 75.1882 33.1486ZM69.5593 41.6491C69.5412 41.6707 69.4869 41.6778 69.4446 41.6563C69.3964 41.6348 69.4145 41.6133 69.4808 41.6133C69.5472 41.6061 69.5834 41.6276 69.5593 41.6491ZM61.7765 54.9918C61.7584 55.0133 61.7041 55.0205 61.6618 54.999C61.6136 54.9775 61.6317 54.956 61.698 54.956C61.7644 54.9488 61.8006 54.9703 61.7765 54.9918ZM62.0178 55.0636C61.9997 55.0851 61.9454 55.0923 61.9031 55.0707C61.8549 55.0492 61.873 55.0277 61.9393 55.0277C62.0057 55.0205 62.0419 55.042 62.0178 55.0636Z" fill="#993C18"/>
<path d="M61.2636 36.4987C60.9861 37.503 60.7085 38.7871 60.5517 39.777C60.4431 40.4513 60.3827 43.5001 60.4793 43.4283C60.5034 43.4068 60.5094 43.4857 60.4913 43.6077C60.4431 43.8946 60.618 44.8917 60.8413 45.5732C61.2938 46.972 62.6331 48.708 63.2545 48.708C63.5984 48.708 64.0027 48.2059 64.3224 47.3809C64.6422 46.5775 64.7266 45.7741 64.7146 43.7224C64.7085 42.8616 64.6844 42.5316 64.5758 42.051C64.1776 40.2433 63.333 38.3567 62.0238 36.3481C61.7885 35.9822 61.5773 35.6666 61.5592 35.6379C61.5351 35.6092 61.4024 35.9966 61.2636 36.4987Z" fill="#993C18"/>
<path d="M13.9938 36.642C12.1537 39.5688 11.3211 42.0724 11.4478 44.2961C11.4659 44.6907 11.4961 45.3004 11.5082 45.6591C11.5383 46.4697 11.6892 47.1225 12.0089 47.7609C12.2744 48.2918 12.5398 48.6074 12.7812 48.6792C13.3966 48.8657 14.8264 47.1153 15.3272 45.573C15.5323 44.9489 15.7314 43.8873 15.6771 43.7223C15.659 43.6577 15.6711 43.4425 15.7073 43.2345C15.7374 43.0336 15.7676 42.3952 15.7676 41.8213C15.7736 40.7094 15.6771 39.784 15.4237 38.5574C15.2246 37.5746 14.7178 35.6521 14.6635 35.6521C14.6334 35.6521 14.3317 36.0969 13.9938 36.642Z" fill="#993C18"/>
<path d="M17.3903 42.187C16.2501 44.9488 15.8579 46.7207 15.8941 48.9373C15.9062 49.5542 15.9303 50.0205 15.9544 49.9774C15.9846 49.9272 15.9846 49.9918 15.9665 50.1137C15.8519 50.8167 16.4311 52.6531 17.0585 53.6072C17.517 54.2959 17.9092 54.468 18.3255 54.1596C18.7478 53.8511 19.502 52.4379 19.7674 51.4695C19.8881 51.0176 20.0449 50.0563 20.0087 49.9846C19.9906 49.9559 20.0087 49.5972 20.0449 49.1883C20.2018 47.3448 19.7373 45.2214 18.597 42.5744C18.3436 41.979 18.0721 41.3908 18.0057 41.2545L17.879 41.0034L17.3903 42.187Z" fill="#993C18"/>
<path d="M58.0598 41.5416C57.3117 43.1126 56.6721 44.8844 56.3946 46.1469C56.1593 47.2301 56.1111 47.8255 56.1473 49.2028C56.1895 50.903 56.3826 51.7638 56.9678 52.9115C57.7883 54.5256 58.3735 54.7121 59.1095 53.6074C59.6767 52.7394 60.1412 51.3621 60.2016 50.3578C60.2136 50.0995 60.2498 49.5615 60.28 49.1598C60.4368 47.0938 59.9421 44.8557 58.6752 41.8644L58.3132 41.0036L58.0598 41.5416Z" fill="#993C18"/>
<path d="M21.4629 46.2116C21.4508 46.2618 21.3784 46.7711 21.3 47.345C21.1854 48.2273 21.1673 48.6936 21.1612 50.4296C21.1492 52.6462 21.2035 53.3061 21.4629 54.4109C21.8611 56.0751 22.6936 57.4955 23.8038 58.3706C24.5277 58.9445 24.944 58.8728 25.2819 58.1267C25.4991 57.6318 25.7283 56.6562 25.7525 56.0966C25.7585 55.8814 25.7826 55.3147 25.8068 54.8413C25.8611 53.8729 25.8007 53.3133 25.5594 52.4095C25.1612 50.9174 24.3648 49.497 22.9712 47.7826C22.0843 46.6922 21.4991 46.0824 21.4629 46.2116Z" fill="#993C18"/>
<path d="M53.7342 47.1799C51.9906 49.2172 51.1098 50.7093 50.6332 52.4309C50.4401 53.1482 50.3013 54.3032 50.3617 54.7981C50.3798 54.9775 50.4099 55.4509 50.422 55.8455C50.4642 57.0506 50.8202 58.3347 51.2003 58.6216C51.6648 58.9659 52.3828 58.5427 53.2938 57.4021C53.8609 56.6991 54.235 55.9746 54.5306 55.0277C54.7538 54.3175 54.9348 53.3491 54.8866 53.1482C54.8624 53.0693 54.8745 53.0119 54.9167 53.0119C54.965 53.0119 54.9771 52.9546 54.959 52.8613C54.9409 52.7824 54.965 52.3089 55.0193 51.8068C55.0796 51.1684 55.0977 50.573 55.0736 49.8197C55.0314 48.4496 54.784 46.1254 54.6814 46.1254C54.6633 46.1254 54.235 46.5988 53.7342 47.1799Z" fill="#993C18"/>
<path d="M26.6272 52.8111C26.9409 53.7365 27.0435 54.0952 26.9832 54.0521C26.947 54.0234 26.9228 54.1382 26.9228 54.3534C26.9228 54.9129 27.6167 56.5987 28.4432 58.0406C29.7403 60.3146 31.6348 61.6919 33.4628 61.6919C34.2109 61.6919 34.4643 61.4982 34.5488 60.8885C34.5548 60.8096 34.5971 60.7235 34.6393 60.6948C34.6996 60.6446 34.7057 60.5011 34.6514 59.9918C34.2532 56.0822 32.232 53.9947 27.6287 52.7322C27.0435 52.5672 26.5488 52.4381 26.5307 52.4381C26.5126 52.4381 26.5609 52.6103 26.6272 52.8111Z" fill="#993C18"/>
<path d="M48.6965 52.6892C45.0223 53.6791 43.0253 55.1568 42.0841 57.5887C41.7282 58.4997 41.4205 60.2931 41.5532 60.6661C41.5834 60.7378 41.6136 60.8741 41.6256 60.9674C41.7041 61.5054 41.9816 61.6919 42.7056 61.6919C44.612 61.6919 46.4763 60.2859 47.8579 57.7967C48.5216 56.6131 49.1973 54.9632 49.2335 54.461C49.2516 54.1741 49.2455 54.0808 49.1912 54.1167C49.1249 54.1669 49.1731 54.0091 49.511 53.0191C49.6799 52.5314 49.698 52.4381 49.6256 52.4453C49.5955 52.4453 49.1792 52.56 48.6965 52.6892Z" fill="#993C18"/>
<path d="M23.7976 59.1166C22.6332 59.296 21.1732 60.0061 19.7735 61.0822C19.1219 61.5771 17.8791 62.646 17.873 62.7034C17.873 62.7321 18.042 62.8181 18.2531 62.9114C18.6513 63.0836 18.8082 63.1983 18.6453 63.1983C18.585 63.1983 18.5307 63.2844 18.5065 63.4135C18.4221 63.8798 18.778 64.1668 19.87 64.5183C23.321 65.6302 25.7946 65.1854 27.5322 63.1266C27.9847 62.5958 28.1415 62.1869 28.0209 61.8784C27.9666 61.7278 27.9847 61.656 28.1958 61.3261C28.3225 61.118 28.4311 60.9315 28.4311 60.91C28.4311 60.8885 28.2803 60.7378 28.0993 60.58C26.7177 59.382 25.2697 58.8871 23.7976 59.1166Z" fill="#993C18"/>
<path d="M50.8323 59.1381C49.8972 59.3533 48.9198 59.8627 48.1415 60.5441L47.7373 60.9028L47.9786 61.2902C48.2019 61.6417 48.22 61.6919 48.1536 61.8641C48.0269 62.1941 48.1777 62.5886 48.6362 63.1266C50.3738 65.1854 52.8474 65.6302 56.2984 64.5183C57.3844 64.1668 57.7464 63.8798 57.6619 63.4207C57.6438 63.3059 57.5774 63.1983 57.5231 63.184C57.4688 63.1696 57.6317 63.0549 57.8911 62.9329L58.3678 62.7177L57.6076 62.0578C55.7735 60.4581 54.2893 59.5686 52.9017 59.2242C52.22 59.0592 51.3512 59.0234 50.8323 59.1381Z" fill="#993C18"/>
<path d="M37.6256 60.7665C37.336 60.8669 36.9016 61.3619 36.7869 61.7277C36.7085 61.9716 36.6904 62.1581 36.7206 62.5312C36.7447 62.7966 36.7568 63.1337 36.7568 63.27C36.7447 63.9515 37.1308 64.6545 37.6316 64.8482C38.4642 65.1782 39.351 64.4752 39.3933 63.4494C39.3993 63.2485 39.4415 62.9401 39.4777 62.7535C39.5381 62.4881 39.5381 62.3231 39.4777 62.029C39.2907 61.0319 38.4702 60.4724 37.6256 60.7665Z" fill="#993C18"/>
<path d="M31.176 62.1654C29.5109 62.4954 27.6346 63.7938 25.535 66.0463L25.2092 66.405L25.6557 66.57C25.903 66.6632 26.0599 66.7493 26.0056 66.7636C25.8668 66.8067 25.8005 67.108 25.8849 67.3232C25.9815 67.5742 26.3374 67.7608 27.0192 67.9258C30.446 68.7507 32.8593 68.1912 34.5607 66.1826C34.9769 65.6876 35.2243 65.25 35.2484 64.9559C35.2786 64.6546 35.2484 64.4825 35.176 64.5327C35.1036 64.5901 35.1036 64.5829 35.4113 64.009C35.5199 63.801 35.6104 63.6073 35.6104 63.5643C35.6104 63.4567 35.3148 63.2343 34.7236 62.8828C33.4747 62.1367 32.3947 61.9144 31.176 62.1654Z" fill="#993C18"/>
<path d="M43.2063 62.1653C42.9529 62.2156 42.5487 62.3447 42.3013 62.4523C41.8428 62.646 40.9378 63.1768 40.6905 63.4064L40.5457 63.5355L40.793 64.0089C40.9257 64.2743 41.0102 64.4895 40.98 64.4895C40.8714 64.4895 40.9137 65.0634 41.0464 65.3575C41.1128 65.5154 41.3662 65.8812 41.6015 66.1681C43.2847 68.1911 45.7161 68.7578 49.149 67.9257C49.8307 67.7607 50.1867 67.5741 50.2832 67.3231C50.3677 67.1079 50.3013 66.8066 50.1625 66.7707C50.1082 66.7492 50.2711 66.6631 50.5306 66.5627L51.0012 66.3905L50.4401 65.8095C48.2561 63.5642 46.6874 62.5097 44.9981 62.1582C44.3586 62.029 43.8277 62.029 43.2063 62.1653Z" fill="#993C18"/>
<g clip-path="url(#clip1_1_274)">
<path d="M37.525 18.7089C36.2661 19.3587 34.3368 20.216 33.1153 20.6684C31.7144 21.1833 30.3011 21.5782 28.8254 21.8656C28.5238 21.9256 26.9259 22.193 25.4752 22.4305C25.1262 22.4855 24.8096 22.5504 24.7722 22.5704L24.7 22.6079V23.1128C24.7 23.9926 24.8495 27.4342 24.9617 29.1788C25.0041 29.8086 25.1387 31.4757 25.1636 31.6407C25.2284 32.1081 25.5275 33.5252 25.7245 34.31C26.1607 36.0471 26.5495 37.2168 27.2325 38.8439C27.584 39.6812 27.9131 40.301 28.6833 41.5757C29.2516 42.5105 29.6654 43.1228 30.3584 44.0501C31.2358 45.2198 32.218 46.2396 33.6413 47.4518C35.2541 48.8289 35.4734 49.0014 36.1864 49.4263C36.4381 49.5787 36.7447 49.7687 36.8719 49.8512C37.1386 50.0286 37.849 50.3835 38.0135 50.4235C38.1232 50.451 38.1407 50.446 38.375 50.3486C38.8336 50.1536 39.22 49.9587 39.4693 49.7937C39.6064 49.7062 39.9279 49.5063 40.1847 49.3513C40.8054 48.9789 41.2266 48.649 42.635 47.4393C43.5797 46.627 43.6919 46.5195 44.4098 45.7672C45.3496 44.7824 45.5116 44.5875 46.3467 43.4303C47.0197 42.498 47.4011 41.8981 48.1464 40.6135C48.7696 39.5337 49.3678 38.1566 49.9312 36.502C50.3574 35.2448 50.9482 32.7179 51.1077 31.4657C51.2797 30.1261 51.4792 26.4945 51.5614 23.2278C51.5764 22.6154 51.5739 22.5854 51.5315 22.5704C51.3844 22.5279 50.3101 22.333 49.5024 22.2055C48.4007 22.0281 47.3288 21.8356 46.7729 21.7156C45.1776 21.3657 43.6271 20.8734 42.0368 20.211C41.0571 19.8036 39.7684 19.2138 38.8062 18.7314C38.1008 18.3765 38.1681 18.3765 37.525 18.7089Z" fill="#993C18"/>
<path d="M34.7693 39.9198H34.8443C35.0843 39.9198 35.2043 39.8098 35.2043 39.5898C35.2043 39.5098 35.1893 39.4248 35.1593 39.3348L33.8093 35.6898H31.1843L29.8793 39.2748C29.8493 39.3548 29.8343 39.4298 29.8343 39.4998C29.8343 39.6298 29.8693 39.7348 29.9393 39.8148C30.0093 39.8848 30.0843 39.9198 30.1643 39.9198H30.2393V40.0698H28.5743V39.9198H28.6493C28.7793 39.9198 28.9043 39.8448 29.0243 39.6948C29.1543 39.5348 29.2593 39.3498 29.3393 39.1398L32.7743 29.9898L36.1343 39.0498C36.2043 39.2498 36.2993 39.4448 36.4193 39.6348C36.5493 39.8248 36.7143 39.9198 36.9143 39.9198H36.9893V40.0698H34.7693V39.9198ZM31.3343 35.1798H33.6443L32.4893 32.0448L31.3343 35.1798Z" fill="#EEC373"/>
<path d="M40.0322 36.2284H40.1072C40.1872 36.2284 40.2572 36.1984 40.3172 36.1384C40.3772 36.0784 40.4272 36.0084 40.4672 35.9284C40.5172 35.8484 40.5522 35.7634 40.5722 35.6734C40.5922 35.5734 40.6022 35.4834 40.6022 35.4034V27.4084C40.6022 27.3384 40.5922 27.2584 40.5722 27.1684C40.5522 27.0784 40.5172 26.9934 40.4672 26.9134C40.4272 26.8334 40.3772 26.7684 40.3172 26.7184C40.2572 26.6584 40.1922 26.6284 40.1222 26.6284H40.0472V26.4784H42.1772V26.6284H42.1022C42.0222 26.6284 41.9522 26.6584 41.8922 26.7184C41.8322 26.7684 41.7772 26.8334 41.7272 26.9134C41.6872 26.9934 41.6522 27.0784 41.6222 27.1684C41.6022 27.2584 41.5922 27.3384 41.5922 27.4084V30.5134L45.0722 27.0484C45.1522 26.9684 45.1922 26.8734 45.1922 26.7634C45.1922 26.6734 45.1522 26.6284 45.0722 26.6284V26.4784H46.6922V26.6284C46.4922 26.6384 46.3122 26.6984 46.1522 26.8084C46.0022 26.9184 45.8372 27.0634 45.6572 27.2434L42.1022 30.7984C42.7522 30.8184 43.2772 30.9584 43.6772 31.2184C44.0772 31.4784 44.3922 31.8384 44.6222 32.2984L45.8072 34.6984C45.8772 34.8484 45.9672 35.0134 46.0772 35.1934C46.1972 35.3634 46.3272 35.5284 46.4672 35.6884C46.6172 35.8384 46.7822 35.9684 46.9622 36.0784C47.1422 36.1784 47.3322 36.2284 47.5322 36.2284V36.3784H46.7822C46.4922 36.3784 46.2422 36.3384 46.0322 36.2584C45.8222 36.1684 45.6372 36.0534 45.4772 35.9134C45.3272 35.7634 45.1922 35.5984 45.0722 35.4184C44.9622 35.2384 44.8622 35.0584 44.7722 34.8784L43.5572 32.4634C43.3672 32.0934 43.1022 31.8134 42.7622 31.6234C42.4322 31.4234 42.0422 31.3134 41.5922 31.2934V35.4034C41.5922 35.4834 41.6022 35.5684 41.6222 35.6584C41.6422 35.7484 41.6722 35.8384 41.7122 35.9284C41.7522 36.0084 41.8022 36.0784 41.8622 36.1384C41.9222 36.1884 41.9872 36.2184 42.0572 36.2284H42.1622V36.3784H40.0322V36.2284Z" fill="#EEC373"/>
<path d="M38.1357 26.2495V39.3745" stroke="#EEC373"/>
</g>
</g>
<defs>
<clipPath id="clip0_1_274">
<rect width="76" height="69" fill="white"/>
</clipPath>
<clipPath id="clip1_1_274">
<rect width="26.8714" height="31.9921" fill="white" transform="translate(24.7 18.4565)"/>
</clipPath>
</defs>
</svg>
