<svg width="25" height="25" viewBox="0 0 25 25" fill="none" xmlns="http://www.w3.org/2000/svg">
<path d="M17.1875 21.8749C9.43359 21.8749 3.125 15.5663 3.125 7.81243C3.12793 6.48241 3.61374 5.19871 4.49211 4.19999C5.37048 3.20127 6.58163 2.5555 7.90039 2.38274C8.23657 2.34547 8.57588 2.41625 8.86912 2.58482C9.16236 2.75339 9.39428 3.01098 9.53125 3.32024L11.4941 7.90032C11.596 8.13806 11.6368 8.39746 11.6129 8.65498C11.589 8.91249 11.5012 9.15997 11.3574 9.37493L9.73633 11.8554C10.4704 13.3451 11.6799 14.5478 13.1738 15.2734L15.625 13.6425C15.8397 13.4978 16.0878 13.4101 16.3459 13.3879C16.6039 13.3657 16.8633 13.4096 17.0996 13.5156L21.6797 15.4687C21.989 15.6057 22.2465 15.8376 22.4151 16.1308C22.5837 16.4241 22.6545 16.7634 22.6172 17.0995C22.4444 18.4183 21.7987 19.6295 20.7999 20.5078C19.8012 21.3862 18.5175 21.872 17.1875 21.8749ZM8.0957 3.93548C7.15327 4.05663 6.28731 4.51713 5.65996 5.23077C5.0326 5.94441 4.68687 6.86225 4.6875 7.81243C4.69009 11.1268 6.00788 14.3048 8.35152 16.6484C10.6952 18.9921 13.8731 20.3098 17.1875 20.3124C18.1377 20.3131 19.0555 19.9673 19.7692 19.34C20.4828 18.7126 20.9433 17.8467 21.0645 16.9042L16.4844 14.9511L14.043 16.582C13.8183 16.7305 13.5591 16.8184 13.2905 16.8372C13.0219 16.856 12.7529 16.8051 12.5098 16.6894C10.6904 15.8093 9.21868 14.3445 8.33008 12.5292C8.21292 12.2869 8.16035 12.0184 8.17746 11.7498C8.19457 11.4812 8.28078 11.2215 8.42773 10.996L10.0586 8.51556L8.0957 3.93548Z" fill="black"/>
</svg>
