<svg width="40" height="40" viewBox="0 0 40 40" fill="none" xmlns="http://www.w3.org/2000/svg">
<g clip-path="url(#clip0_36_22)">
<path d="M33.3333 6.47608C31.5879 4.71756 29.5103 3.32362 27.2213 2.37532C24.9323 1.42702 22.4776 0.943292 20 0.952271C16.6877 0.955503 13.4345 1.82893 10.566 3.48507C7.69748 5.14122 5.31446 7.52195 3.65557 10.3889C1.99667 13.2558 1.12013 16.5082 1.11372 19.8204C1.10731 23.1327 1.97126 26.3885 3.61904 29.2618L0.952377 39.0475L10.9524 36.4285C13.7137 37.9647 16.8164 38.7834 19.9762 38.8094C24.9992 38.8096 29.8189 36.8257 33.3863 33.2896C36.9537 29.7534 38.9799 24.9513 39.0238 19.9285C39.007 17.422 38.4958 14.9436 37.5193 12.6351C36.5428 10.3267 35.1203 8.23369 33.3333 6.47608ZM20 35.5475C17.185 35.5493 14.4214 34.7927 12 33.357L11.4286 32.9999L5.5 34.5713L7.07143 28.7856L6.69047 28.1904C4.66488 24.9205 3.90891 21.0213 4.56577 17.2314C5.22262 13.4415 7.24669 10.0241 10.2545 7.62662C13.2624 5.22915 17.0451 4.01812 20.886 4.22295C24.727 4.42778 28.3594 6.03423 31.0952 8.73799C34.0857 11.6623 35.7976 15.651 35.8571 19.8332C35.8195 24.014 34.1322 28.0107 31.1625 30.9537C28.1928 33.8966 24.1809 35.5477 20 35.5475ZM28.5952 23.7856C28.119 23.5475 25.8095 22.4047 25.3809 22.2618C24.9524 22.1189 24.619 22.0237 24.3095 22.4999C23.8437 23.1382 23.3429 23.7502 22.8095 24.3332C22.5476 24.6666 22.2619 24.6904 21.7857 24.3332C19.0708 23.2603 16.8088 21.2842 15.3809 18.738C14.8809 17.9047 15.8571 17.9523 16.7619 16.1666C16.8287 16.0378 16.8636 15.8949 16.8636 15.7499C16.8636 15.6049 16.8287 15.462 16.7619 15.3332C16.7619 15.0951 15.6905 12.7618 15.3095 11.8332C14.9286 10.9047 14.5476 11.0475 14.2381 11.0237H13.3095C13.0689 11.0274 12.8319 11.0824 12.6143 11.1851C12.3967 11.2877 12.2035 11.4356 12.0476 11.6189C11.5134 12.1384 11.0967 12.7664 10.8256 13.4605C10.5545 14.1546 10.4354 14.8987 10.4762 15.6427C10.6255 17.4239 11.2963 19.1216 12.4048 20.5237C14.4338 23.5612 17.2144 26.022 20.4762 27.6666C22.1868 28.6652 24.175 29.0829 26.1429 28.857C26.7982 28.727 27.4188 28.4605 27.9643 28.0749C28.5099 27.6893 28.9682 27.1933 29.3095 26.6189C29.6257 25.9181 29.7252 25.1387 29.5952 24.3808C29.381 24.1427 29.0714 24.0237 28.5952 23.7856Z" fill="black"/>
</g>
<defs>
<clipPath id="clip0_36_22">
<rect width="40" height="40" fill="white"/>
</clipPath>
</defs>
</svg>
